<svg version="1.1" viewBox="0.0 0.0 960.0 540.0" fill="none" stroke="none" stroke-linecap="square" stroke-miterlimit="10" xmlns:xlink="http://www.w3.org/1999/xlink" xmlns="http://www.w3.org/2000/svg"><clipPath id="g93ed9dfcca_0_94.0"><path d="m0 0l960.0 0l0 540.0l-960.0 0l0 -540.0z" clip-rule="nonzero"/></clipPath><g clip-path="url(#g93ed9dfcca_0_94.0)"><path fill="#ffffff" d="m0 0l960.0 0l0 540.0l-960.0 0z" fill-rule="evenodd"/><path fill="#000000" fill-opacity="0.0" d="m641.18634 212.00262l140.97638 0l0 60.59842l-140.97638 0z" fill-rule="evenodd"/><path stroke="#000000" stroke-width="1.0" stroke-linejoin="round" stroke-linecap="butt" d="m641.18634 212.00262l140.97638 0l0 60.59842l-140.97638 0z" fill-rule="evenodd"/><path fill="#000000" d="m676.5628 248.92262l-0.859375 -3.265625l-4.3125 0l-0.859375 3.265625l-1.734375 0l3.71875 -12.828125l2.125 0l3.71875 12.828125l-1.796875 0zm-4.8125 -4.625l3.59375 0l-1.78125 -6.828125l-1.8125 6.828125zm11.656921 -5.4375q0.78125 0 1.4375 0.265625q0.65625 0.265625 1.25 0.796875l-0.75 1.015625q-0.4375 -0.359375 -0.890625 -0.53125q-0.453125 -0.171875 -0.96875 -0.171875q-1.09375 0 -1.703125 0.9375q-0.609375 0.921875 -0.609375 2.90625q0 3.6875 2.3125 3.6875q0.515625 0 0.9375 -0.171875q0.4375 -0.1875 0.921875 -0.53125l0.796875 1.015625q-1.203125 1.09375 -2.71875 1.09375q-1.875 0 -2.953125 -1.3125q-1.0625 -1.3125 -1.0625 -3.765625q0 -1.609375 0.484375 -2.78125q0.5 -1.171875 1.40625 -1.8125q0.90625 -0.640625 2.109375 -0.640625zm7.630249 0q0.78125 0 1.4375 0.265625q0.65625 0.265625 1.25 0.796875l-0.75 1.015625q-0.4375 -0.359375 -0.890625 -0.53125q-0.453125 -0.171875 -0.96875 -0.171875q-1.09375 0 -1.703125 0.9375q-0.609375 0.921875 -0.609375 2.90625q0 3.6875 2.3125 3.6875q0.515625 0 0.9375 -0.171875q0.4375 -0.1875 0.921875 -0.53125l0.796875 1.015625q-1.203125 1.09375 -2.71875 1.09375q-1.875 0 -2.953125 -1.3125q-1.0625 -1.3125 -1.0625 -3.765625q0 -1.609375 0.484375 -2.78125q0.5 -1.171875 1.40625 -1.8125q0.90625 -0.640625 2.109375 -0.640625zm11.098938 4.859375q0 0.390625 -0.03125 0.875l-5.703125 0q0.0625 1.71875 0.671875 2.484375q0.625 0.75 1.6875 0.75q0.671875 0 1.203125 -0.203125q0.53125 -0.21875 1.109375 -0.6875l0.75 1.0q-1.375 1.234375 -3.140625 1.234375q-1.921875 0 -2.96875 -1.328125q-1.046875 -1.34375 -1.046875 -3.75q0 -2.40625 1.0 -3.8125q1.0 -1.421875 2.796875 -1.421875q1.78125 0 2.71875 1.265625q0.953125 1.265625 0.953125 3.59375zm-1.625 -0.5q0 -3.078125 -2.03125 -3.078125q-0.921875 0 -1.46875 0.78125q-0.546875 0.765625 -0.609375 2.5l4.109375 0l0 -0.203125zm8.200562 -4.359375q1.59375 0 2.40625 1.328125q0.8125 1.328125 0.8125 3.796875q0 2.375 -0.90625 3.78125q-0.90625 1.40625 -2.515625 1.40625q-1.46875 0 -2.359375 -1.1875l0 4.671875l-1.671875 0.203125l0 -13.75l1.46875 0l0.09375 1.328125q1.0 -1.578125 2.671875 -1.578125zm-0.59375 8.96875q2.0625 0 2.0625 -3.828125q0 -2.0 -0.484375 -2.90625q-0.46875 -0.90625 -1.4375 -0.90625q-0.65625 0 -1.15625 0.390625q-0.5 0.390625 -0.953125 1.0625l0 4.96875q0.765625 1.21875 1.96875 1.21875zm10.925171 0.671875q-0.9375 0.671875 -2.078125 0.671875q-1.1875 0 -1.828125 -0.6875q-0.640625 -0.703125 -0.640625 -1.953125l0 -6.15625l-1.40625 0l0 -1.265625l1.40625 0l0 -2.265625l1.671875 -0.203125l0 2.46875l2.171875 0l-0.1875 1.265625l-1.984375 0l0 6.140625q0 1.265625 1.0625 1.265625q0.328125 0 0.59375 -0.09375q0.265625 -0.09375 0.609375 -0.28125l0.609375 1.09375zm7.4386597 -1.8125q0 0.59375 0.171875 0.890625q0.171875 0.28125 0.53125 0.421875l-0.359375 1.140625q-0.734375 -0.109375 -1.140625 -0.4375q-0.40625 -0.34375 -0.578125 -1.03125q-0.953125 1.5 -2.671875 1.5q-1.296875 0 -2.0625 -0.8125q-0.765625 -0.8125 -0.765625 -2.1875q0 -1.5625 1.015625 -2.375q1.03125 -0.828125 2.9375 -0.828125l1.265625 0l0 -0.84375q0 -1.015625 -0.421875 -1.46875q-0.421875 -0.46875 -1.375 -0.46875q-1.015625 0 -2.375 0.53125l-0.421875 -1.1875q1.640625 -0.671875 3.0625 -0.671875q3.1875 0 3.1875 3.203125l0 4.625zm-3.65625 1.203125q1.3125 0 2.0 -1.53125l0 -2.3125l-1.078125 0q-2.421875 0 -2.421875 2.046875q0 0.875 0.390625 1.34375q0.390625 0.453125 1.109375 0.453125zm11.063477 -9.03125q1.1875 0 1.84375 0.78125q0.65625 0.78125 0.65625 2.140625l0 7.140625l-1.671875 0l0 -6.9375q0 -0.953125 -0.328125 -1.375q-0.3125 -0.421875 -0.96875 -0.421875q-1.21875 0 -2.234375 1.75l0 6.984375l-1.671875 0l0 -9.8125l1.453125 0l0.125 1.453125q1.140625 -1.703125 2.796875 -1.703125zm8.863098 0q0.78125 0 1.4375 0.265625q0.65625 0.265625 1.25 0.796875l-0.75 1.015625q-0.4375 -0.359375 -0.890625 -0.53125q-0.453125 -0.171875 -0.96875 -0.171875q-1.09375 0 -1.703125 0.9375q-0.609375 0.921875 -0.609375 2.90625q0 3.6875 2.3125 3.6875q0.515625 0 0.9375 -0.171875q0.4375 -0.1875 0.921875 -0.53125l0.796875 1.015625q-1.203125 1.09375 -2.71875 1.09375q-1.875 0 -2.953125 -1.3125q-1.0625 -1.3125 -1.0625 -3.765625q0 -1.609375 0.484375 -2.78125q0.5 -1.171875 1.40625 -1.8125q0.90625 -0.640625 2.109375 -0.640625zm11.098938 4.859375q0 0.390625 -0.03125 0.875l-5.703125 0q0.0625 1.71875 0.671875 2.484375q0.625 0.75 1.6875 0.75q0.671875 0 1.203125 -0.203125q0.53125 -0.21875 1.109375 -0.6875l0.75 1.0q-1.375 1.234375 -3.140625 1.234375q-1.921875 0 -2.96875 -1.328125q-1.046875 -1.34375 -1.046875 -3.75q0 -2.40625 1.0 -3.8125q1.0 -1.421875 2.796875 -1.421875q1.78125 0 2.71875 1.265625q0.953125 1.265625 0.953125 3.59375zm-1.625 -0.5q0 -3.078125 -2.03125 -3.078125q-0.921875 0 -1.46875 0.78125q-0.546875 0.765625 -0.609375 2.5l4.109375 0l0 -0.203125z" fill-rule="nonzero"/><path fill="#373f51" d="m264.021 55.855644l123.811035 0l0 35.307083l-123.811035 0z" fill-rule="evenodd"/><path fill="#f3f3f3" d="m311.2582 80.215645l0 -5.171875l-4.0 0l0 5.171875l-1.484375 0l0 -11.015625l1.484375 0l0 4.625l4.0 0l0 -4.625l1.5 0l0 11.015625l-1.5 0zm10.055389 -4.46875q0 0.34375 -0.03125 0.75l-4.90625 0q0.078125 1.484375 0.59375 2.140625q0.53125 0.640625 1.4375 0.640625q0.578125 0 1.03125 -0.171875q0.46875 -0.1875 0.953125 -0.59375l0.640625 0.859375q-1.171875 1.046875 -2.6875 1.046875q-1.640625 0 -2.546875 -1.140625q-0.90625 -1.140625 -0.90625 -3.203125q0 -2.0625 0.859375 -3.265625q0.875 -1.21875 2.40625 -1.21875q1.515625 0 2.328125 1.078125q0.828125 1.078125 0.828125 3.078125zm-1.390625 -0.421875q0 -2.640625 -1.75 -2.640625q-0.796875 0 -1.265625 0.671875q-0.453125 0.65625 -0.53125 2.140625l3.546875 0l0 -0.171875zm8.494415 2.96875q0 0.515625 0.140625 0.765625q0.140625 0.25 0.453125 0.375l-0.3125 0.96875q-0.625 -0.09375 -0.984375 -0.375q-0.34375 -0.296875 -0.484375 -0.890625q-0.8125 1.28125 -2.28125 1.28125q-1.125 0 -1.78125 -0.6875q-0.65625 -0.703125 -0.65625 -1.875q0 -1.34375 0.875 -2.046875q0.890625 -0.703125 2.515625 -0.703125l1.09375 0l0 -0.71875q0 -0.875 -0.359375 -1.265625q-0.359375 -0.390625 -1.1875 -0.390625q-0.875 0 -2.046875 0.4375l-0.34375 -1.0q1.40625 -0.578125 2.625 -0.578125q2.734375 0 2.734375 2.734375l0 3.96875zm-3.140625 1.046875q1.125 0 1.71875 -1.3125l0 -1.984375l-0.9375 0q-2.078125 0 -2.078125 1.734375q0 0.75 0.328125 1.15625q0.34375 0.40625 0.96875 0.40625zm7.1487427 1.078125q-0.765625 0 -1.21875 -0.453125q-0.4375 -0.46875 -0.4375 -1.296875l0 -10.28125l1.4375 -0.15625l0 10.390625q0 0.625 0.515625 0.625q0.203125 0 0.453125 -0.109375l0.328125 1.015625q-0.515625 0.265625 -1.078125 0.265625zm6.6302795 -0.578125q-0.796875 0.578125 -1.78125 0.578125q-1.015625 0 -1.578125 -0.578125q-0.546875 -0.59375 -0.546875 -1.671875l0 -5.28125l-1.203125 0l0 -1.09375l1.203125 0l0 -1.9375l1.4375 -0.171875l0 2.109375l1.859375 0l-0.15625 1.09375l-1.703125 0l0 5.265625q0 1.09375 0.921875 1.09375q0.265625 0 0.5 -0.078125q0.234375 -0.09375 0.515625 -0.25l0.53125 0.921875zm5.0132446 -8.25q1.0 0 1.5625 0.671875q0.578125 0.671875 0.578125 1.828125l0 6.125l-1.4375 0l0 -5.953125q0 -0.8125 -0.28125 -1.171875q-0.28125 -0.359375 -0.828125 -0.359375q-1.0625 0 -1.921875 1.5l0 5.984375l-1.4375 0l0 -11.8125l1.4375 -0.15625l0 4.75q0.46875 -0.6875 1.015625 -1.046875q0.5625 -0.359375 1.3125 -0.359375z" fill-rule="nonzero"/><path fill="#008dd5" d="m264.021 185.42693l123.811035 0l0 35.307083l-123.811035 0z" fill-rule="evenodd"/><path fill="#000000" d="m305.91394 198.56818q0.921875 0 1.609375 0.296875q0.703125 0.296875 1.375 0.90625l-0.796875 0.828125q-0.546875 -0.4375 -1.046875 -0.640625q-0.484375 -0.203125 -1.109375 -0.203125q-1.25 0 -2.046875 1.0625q-0.796875 1.0625 -0.796875 3.453125q0 2.421875 0.671875 3.484375q0.671875 1.046875 2.015625 1.046875q0.984375 0 1.78125 -0.484375l0 -3.4375l-1.671875 0l-0.15625 -1.171875l3.265625 0l0 5.296875q-1.515625 0.984375 -3.21875 0.984375q-2.046875 0 -3.15625 -1.421875q-1.109375 -1.4375 -1.109375 -4.3125q0 -1.859375 0.59375 -3.140625q0.59375 -1.28125 1.59375 -1.90625q1.0 -0.640625 2.203125 -0.640625zm11.183655 6.75q0 0.34375 -0.03125 0.75l-4.90625 0q0.078125 1.484375 0.59375 2.140625q0.53125 0.640625 1.4375 0.640625q0.578125 0 1.03125 -0.171875q0.46875 -0.1875 0.953125 -0.59375l0.640625 0.859375q-1.171875 1.046875 -2.6875 1.046875q-1.640625 0 -2.546875 -1.140625q-0.90625 -1.140625 -0.90625 -3.203125q0 -2.0625 0.859375 -3.265625q0.875 -1.21875 2.40625 -1.21875q1.515625 0 2.328125 1.078125q0.828125 1.078125 0.828125 3.078125zm-1.390625 -0.421875q0 -2.640625 -1.75 -2.640625q-0.796875 0 -1.265625 0.671875q-0.453125 0.65625 -0.53125 2.140625l3.546875 0l0 -0.171875zm7.154022 -3.734375q1.0 0 1.5625 0.671875q0.578125 0.65625 0.578125 1.828125l0 6.125l-1.4375 0l0 -5.953125q0 -0.8125 -0.28125 -1.171875q-0.265625 -0.359375 -0.828125 -0.359375q-1.0625 0 -1.921875 1.5l0 5.984375l-1.4375 0l0 -8.421875l1.25 0l0.109375 1.25q0.96875 -1.453125 2.40625 -1.453125zm10.572632 4.15625q0 0.34375 -0.03125 0.75l-4.90625 0q0.078125 1.484375 0.59375 2.140625q0.53125 0.640625 1.4375 0.640625q0.578125 0 1.03125 -0.171875q0.46875 -0.1875 0.953125 -0.59375l0.640625 0.859375q-1.171875 1.046875 -2.6875 1.046875q-1.640625 0 -2.546875 -1.140625q-0.90625 -1.140625 -0.90625 -3.203125q0 -2.0625 0.859375 -3.265625q0.875 -1.21875 2.40625 -1.21875q1.515625 0 2.328125 1.078125q0.828125 1.078125 0.828125 3.078125zm-1.390625 -0.421875q0 -2.640625 -1.75 -2.640625q-0.796875 0 -1.265625 0.671875q-0.453125 0.65625 -0.53125 2.140625l3.546875 0l0 -0.171875zm6.841522 -3.71875q0.421875 0 0.71875 0.09375l-0.234375 1.390625q-0.3125 -0.09375 -0.65625 -0.09375q-0.703125 0 -1.15625 0.5625q-0.4375 0.5625 -0.6875 1.71875l0 4.9375l-1.4375 0l0 -8.421875l1.25 0l0.109375 1.671875q0.625 -1.859375 2.09375 -1.859375zm6.8848877 6.6875q0 0.515625 0.140625 0.765625q0.140625 0.25 0.453125 0.375l-0.3125 0.96875q-0.625 -0.09375 -0.984375 -0.375q-0.34375 -0.296875 -0.484375 -0.890625q-0.8125 1.28125 -2.28125 1.28125q-1.125 0 -1.78125 -0.6875q-0.65625 -0.703125 -0.65625 -1.875q0 -1.34375 0.875 -2.046875q0.890625 -0.703125 2.515625 -0.703125l1.09375 0l0 -0.71875q0 -0.875 -0.359375 -1.265625q-0.359375 -0.390625 -1.1875 -0.390625q-0.875 0 -2.046875 0.4375l-0.34375 -1.0q1.40625 -0.578125 2.625 -0.578125q2.734375 0 2.734375 2.734375l0 3.96875zm-3.140625 1.046875q1.125 0 1.71875 -1.3125l0 -1.984375l-0.9375 0q-2.078125 0 -2.078125 1.734375q0 0.75 0.328125 1.15625q0.34375 0.40625 0.96875 0.40625zm7.148773 1.078125q-0.765625 0 -1.21875 -0.453125q-0.4375 -0.46875 -0.4375 -1.296875l0 -10.28125l1.4375 -0.15625l0 10.390625q0 0.625 0.515625 0.625q0.203125 0 0.453125 -0.109375l0.328125 1.015625q-0.515625 0.265625 -1.078125 0.265625z" fill-rule="nonzero"/><path fill="#373f51" d="m264.021 99.04607l123.811035 0l0 35.307083l-123.811035 0z" fill-rule="evenodd"/><path fill="#f3f3f3" d="m314.5835 112.39044q1.4375 0 2.484375 0.4375q1.0625 0.4375 1.71875 1.640625q0.671875 1.1875 0.671875 3.375q0 3.09375 -1.328125 4.328125q-1.3125 1.234375 -3.328125 1.234375l-2.484375 0l0 -11.015625l2.265625 0zm-0.78125 1.171875l0 8.6875l1.09375 0q1.375 0 2.1875 -0.953125q0.8125 -0.953125 0.8125 -3.453125q0 -1.765625 -0.421875 -2.703125q-0.421875 -0.953125 -1.09375 -1.265625q-0.65625 -0.3125 -1.5625 -0.3125l-1.015625 0zm12.839142 7.921875q0 0.515625 0.140625 0.765625q0.140625 0.25 0.453125 0.375l-0.3125 0.96875q-0.625 -0.09375 -0.984375 -0.375q-0.34375 -0.296875 -0.484375 -0.890625q-0.8125 1.28125 -2.28125 1.28125q-1.125 0 -1.78125 -0.6875q-0.65625 -0.703125 -0.65625 -1.875q0 -1.34375 0.875 -2.046875q0.890625 -0.703125 2.515625 -0.703125l1.09375 0l0 -0.71875q0 -0.875 -0.359375 -1.265625q-0.359375 -0.390625 -1.1875 -0.390625q-0.875 0 -2.046875 0.4375l-0.34375 -1.0q1.40625 -0.578125 2.625 -0.578125q2.734375 0 2.734375 2.734375l0 3.96875zm-3.140625 1.046875q1.125 0 1.71875 -1.3125l0 -1.984375l-0.9375 0q-2.078125 0 -2.078125 1.734375q0 0.75 0.328125 1.15625q0.34375 0.40625 0.96875 0.40625zm9.714996 0.5q-0.796875 0.578125 -1.78125 0.578125q-1.015625 0 -1.578125 -0.578125q-0.546875 -0.59375 -0.546875 -1.671875l0 -5.28125l-1.203125 0l0 -1.09375l1.203125 0l0 -1.9375l1.4375 -0.171875l0 2.109375l1.859375 0l-0.15625 1.09375l-1.703125 0l0 5.265625q0 1.09375 0.921875 1.09375q0.265625 0 0.5 -0.078125q0.234375 -0.09375 0.515625 -0.25l0.53125 0.921875zm6.3856506 -1.546875q0 0.515625 0.140625 0.765625q0.140625 0.25 0.453125 0.375l-0.3125 0.96875q-0.625 -0.09375 -0.984375 -0.375q-0.34375 -0.296875 -0.484375 -0.890625q-0.8125 1.28125 -2.28125 1.28125q-1.125 0 -1.78125 -0.6875q-0.65625 -0.703125 -0.65625 -1.875q0 -1.34375 0.875 -2.046875q0.890625 -0.703125 2.515625 -0.703125l1.09375 0l0 -0.71875q0 -0.875 -0.359375 -1.265625q-0.359375 -0.390625 -1.1875 -0.390625q-0.875 0 -2.046875 0.4375l-0.34375 -1.0q1.40625 -0.578125 2.625 -0.578125q2.734375 0 2.734375 2.734375l0 3.96875zm-3.140625 1.046875q1.125 0 1.71875 -1.3125l0 -1.984375l-0.9375 0q-2.078125 0 -2.078125 1.734375q0 0.75 0.328125 1.15625q0.34375 0.40625 0.96875 0.40625z" fill-rule="nonzero"/><path fill="#000000" fill-opacity="0.0" d="m387.83203 116.699615c63.338562 0 95.00787 31.401566 126.677185 62.803146c31.66925 31.40158 63.338562 62.803146 126.677124 62.803146" fill-rule="evenodd"/><path stroke="#999999" stroke-width="2.0" stroke-linejoin="round" stroke-linecap="butt" stroke-dasharray="8.0,6.0" d="m387.83203 116.699615c63.338562 0 95.00787 31.401566 126.677185 62.803146c31.66925 31.40158 63.338562 62.803146 126.677124 62.803146" fill-rule="evenodd"/><path fill="#000000" fill-opacity="0.0" d="m387.83203 203.08046c63.338562 0 95.00787 9.803162 126.677185 19.606308c31.66925 9.803146 63.338562 19.606293 126.677124 19.606293" fill-rule="evenodd"/><path stroke="#999999" stroke-width="2.0" stroke-linejoin="round" stroke-linecap="butt" stroke-dasharray="8.0,6.0" d="m387.83203 203.08046c63.338562 0 95.00787 9.803162 126.677185 19.606308c31.66925 9.803146 63.338562 19.606293 126.677124 19.606293" fill-rule="evenodd"/><path fill="#000000" fill-opacity="0.0" d="m543.51184 355.4252l77.480286 0l0 35.149597l-77.480286 0z" fill-rule="evenodd"/><path fill="#000000" d="m556.0431 368.42706q1.8125 0 2.765625 0.78125q0.953125 0.765625 0.953125 2.328125q0 1.640625 -0.96875 2.4375q-0.96875 0.796875 -2.703125 0.796875l-0.96875 0l0 3.734375l-1.359375 0l0 -10.078125l2.28125 0zm0 5.28125q1.15625 0 1.71875 -0.484375q0.578125 -0.484375 0.578125 -1.6875q0 -1.09375 -0.5625 -1.578125q-0.5625 -0.5 -1.71875 -0.5l-0.9375 0l0 4.25l0.921875 0zm7.5689697 -3.109375q1.46875 0 2.28125 1.046875q0.828125 1.046875 0.828125 2.984375q0 1.875 -0.84375 2.96875q-0.828125 1.09375 -2.28125 1.09375q-1.484375 0 -2.3125 -1.0625q-0.828125 -1.078125 -0.828125 -2.984375q0 -1.921875 0.828125 -2.984375q0.84375 -1.0625 2.328125 -1.0625zm0 1.0625q-0.875 0 -1.328125 0.734375q-0.453125 0.71875 -0.453125 2.25q0 3.015625 1.765625 3.015625q1.75 0 1.75 -3.03125q0 -1.53125 -0.4375 -2.25q-0.4375 -0.71875 -1.296875 -0.71875zm7.0217285 -1.0625q1.328125 0 2.375 0.890625l-0.5625 0.765625q-0.46875 -0.3125 -0.890625 -0.46875q-0.40625 -0.171875 -0.859375 -0.171875q-0.59375 0 -0.9375 0.296875q-0.34375 0.28125 -0.34375 0.78125q0 0.484375 0.328125 0.765625q0.328125 0.265625 1.25 0.5625q1.15625 0.359375 1.6875 0.890625q0.53125 0.53125 0.53125 1.453125q0 1.078125 -0.796875 1.703125q-0.796875 0.625 -1.984375 0.625q-1.5625 0 -2.640625 -1.03125l0.671875 -0.734375q0.921875 0.75 1.9375 0.75q0.65625 0 1.046875 -0.328125q0.390625 -0.328125 0.390625 -0.890625q0 -0.421875 -0.140625 -0.65625q-0.125 -0.25 -0.484375 -0.453125q-0.359375 -0.203125 -1.046875 -0.421875q-1.109375 -0.359375 -1.59375 -0.875q-0.484375 -0.515625 -0.484375 -1.3125q0 -0.609375 0.328125 -1.09375q0.328125 -0.484375 0.890625 -0.765625q0.578125 -0.28125 1.328125 -0.28125zm5.5707397 0.203125l0 7.703125l-1.3125 0l0 -7.703125l1.3125 0zm-0.640625 -3.640625q0.375 0 0.609375 0.25q0.25 0.25 0.25 0.609375q0 0.375 -0.234375 0.625q-0.234375 0.234375 -0.625 0.234375q-0.390625 0 -0.640625 -0.234375q-0.234375 -0.25 -0.234375 -0.625q0 -0.359375 0.234375 -0.609375q0.25 -0.25 0.640625 -0.25zm6.6777344 11.0q-0.734375 0.53125 -1.640625 0.53125q-0.9375 0 -1.4375 -0.53125q-0.5 -0.546875 -0.5 -1.53125l0 -4.84375l-1.109375 0l0 -0.984375l1.109375 0l0 -1.78125l1.3125 -0.15625l0 1.9375l1.703125 0l-0.140625 0.984375l-1.5625 0l0 4.828125q0 1.0 0.84375 1.0q0.25 0 0.453125 -0.078125q0.21875 -0.078125 0.484375 -0.21875l0.484375 0.84375zm2.4489136 -7.359375l0 7.703125l-1.3125 0l0 -7.703125l1.3125 0zm-0.640625 -3.640625q0.375 0 0.609375 0.25q0.25 0.25 0.25 0.609375q0 0.375 -0.234375 0.625q-0.234375 0.234375 -0.625 0.234375q-0.390625 0 -0.640625 -0.234375q-0.234375 -0.25 -0.234375 -0.625q0 -0.359375 0.234375 -0.609375q0.25 -0.25 0.640625 -0.25zm8.224609 3.640625l-2.296875 7.703125l-1.59375 0l-2.375 -7.703125l1.390625 0l1.78125 6.59375l1.78125 -6.59375l1.3125 0zm6.666504 3.609375q0 0.3125 -0.03125 0.6875l-4.484375 0q0.0625 1.359375 0.546875 1.953125q0.484375 0.59375 1.3125 0.59375q0.53125 0 0.953125 -0.15625q0.421875 -0.171875 0.875 -0.53125l0.578125 0.765625q-1.078125 0.96875 -2.453125 0.96875q-1.515625 0 -2.34375 -1.046875q-0.828125 -1.046875 -0.828125 -2.9375q0 -1.890625 0.78125 -3.0q0.796875 -1.109375 2.203125 -1.109375q1.390625 0 2.140625 1.0q0.75 0.984375 0.75 2.8125zm-1.28125 -0.390625q0 -2.421875 -1.59375 -2.421875q-0.734375 0 -1.15625 0.609375q-0.421875 0.609375 -0.484375 1.96875l3.234375 0l0 -0.15625z" fill-rule="nonzero"/><path fill="#000000" fill-opacity="0.0" d="m540.19684 374.5748l96.12598 0l0 35.149597l-96.12598 0z" fill-rule="evenodd"/><path fill="#000000" d="m556.8531 397.65482l-1.765625 0l-3.59375 -8.65625q0.1875 1.921875 0.1875 3.765625l0 4.890625l-1.234375 0l0 -10.078125l1.734375 0l3.609375 8.671875q-0.0625 -0.515625 -0.125 -1.40625q-0.0625 -0.890625 -0.0625 -1.78125l0 -5.484375l1.25 0l0 10.078125zm7.8338623 -4.09375q0 0.3125 -0.03125 0.6875l-4.484375 0q0.0625 1.359375 0.546875 1.953125q0.484375 0.59375 1.3125 0.59375q0.53125 0 0.953125 -0.15625q0.421875 -0.171875 0.875 -0.53125l0.578125 0.765625q-1.078125 0.96875 -2.453125 0.96875q-1.515625 0 -2.34375 -1.046875q-0.828125 -1.046875 -0.828125 -2.9375q0 -1.890625 0.78125 -3.0q0.796875 -1.109375 2.203125 -1.109375q1.390625 0 2.140625 1.0q0.75 0.984375 0.75 2.8125zm-1.28125 -0.390625q0 -2.421875 -1.59375 -2.421875q-0.734375 0 -1.15625 0.609375q-0.421875 0.609375 -0.484375 1.96875l3.234375 0l0 -0.15625zm8.771484 -2.953125q-0.625 0.25 -1.953125 0.25q1.234375 0.625 1.234375 2.03125q0 1.15625 -0.734375 1.875q-0.71875 0.703125 -1.96875 0.703125q-0.46875 0 -0.84375 -0.140625q-0.40625 0.28125 -0.40625 0.734375q0 0.6875 0.96875 0.6875l1.0 0q1.15625 0 1.828125 0.59375q0.671875 0.578125 0.671875 1.46875q0 1.078125 -0.84375 1.703125q-0.828125 0.625 -2.4375 0.625q-1.671875 0 -2.375 -0.578125q-0.6875 -0.5625 -0.6875 -1.734375l1.1875 0q0 0.484375 0.15625 0.765625q0.171875 0.28125 0.578125 0.421875q0.40625 0.140625 1.15625 0.140625q1.03125 0 1.484375 -0.328125q0.453125 -0.3125 0.453125 -0.921875q0 -0.546875 -0.375 -0.84375q-0.359375 -0.296875 -1.046875 -0.296875l-0.875 0q-1.0 0 -1.5 -0.390625q-0.5 -0.390625 -0.5 -1.03125q0 -0.75 0.796875 -1.328125q-0.609375 -0.359375 -0.921875 -0.890625q-0.296875 -0.53125 -0.296875 -1.296875q0 -1.203125 0.765625 -1.9375q0.765625 -0.734375 2.015625 -0.734375q1.15625 0 1.78125 -0.15625q0.640625 -0.15625 1.328125 -0.5l0.359375 1.109375zm-3.453125 0.46875q-0.71875 0 -1.09375 0.453125q-0.375 0.453125 -0.375 1.296875q0 0.828125 0.390625 1.296875q0.390625 0.453125 1.078125 0.453125q1.453125 0 1.453125 -1.765625q0 -0.84375 -0.375 -1.28125q-0.359375 -0.453125 -1.078125 -0.453125zm9.219177 5.203125q0 0.46875 0.125 0.703125q0.140625 0.234375 0.40625 0.34375l-0.265625 0.890625q-0.578125 -0.078125 -0.90625 -0.34375q-0.3125 -0.265625 -0.453125 -0.8125q-0.75 1.171875 -2.09375 1.171875q-1.03125 0 -1.625 -0.625q-0.59375 -0.640625 -0.59375 -1.71875q0 -1.234375 0.796875 -1.875q0.8125 -0.640625 2.296875 -0.640625l1.0 0l0 -0.65625q0 -0.8125 -0.328125 -1.171875q-0.328125 -0.359375 -1.078125 -0.359375q-0.796875 0 -1.875 0.40625l-0.328125 -0.921875q1.296875 -0.53125 2.40625 -0.53125q2.515625 0 2.515625 2.515625l0 3.625zm-2.875 0.953125q1.015625 0 1.5625 -1.203125l0 -1.8125l-0.84375 0q-1.90625 0 -1.90625 1.59375q0 0.703125 0.296875 1.0625q0.3125 0.359375 0.890625 0.359375zm8.90033 0.46875q-0.734375 0.53125 -1.640625 0.53125q-0.9375 0 -1.4375 -0.53125q-0.5 -0.546875 -0.5 -1.53125l0 -4.84375l-1.109375 0l0 -0.984375l1.109375 0l0 -1.78125l1.3125 -0.15625l0 1.9375l1.703125 0l-0.140625 0.984375l-1.5625 0l0 4.828125q0 1.0 0.84375 1.0q0.25 0 0.453125 -0.078125q0.21875 -0.078125 0.484375 -0.21875l0.484375 0.84375zm2.4488525 -7.359375l0 7.703125l-1.3125 0l0 -7.703125l1.3125 0zm-0.640625 -3.640625q0.375 0 0.609375 0.25q0.25 0.25 0.25 0.609375q0 0.375 -0.234375 0.625q-0.234375 0.234375 -0.625 0.234375q-0.390625 0 -0.640625 -0.234375q-0.234375 -0.25 -0.234375 -0.625q0 -0.359375 0.234375 -0.609375q0.25 -0.25 0.640625 -0.25zm8.22467 3.640625l-2.296875 7.703125l-1.59375 0l-2.375 -7.703125l1.390625 0l1.78125 6.59375l1.78125 -6.59375l1.3125 0zm6.666504 3.609375q0 0.3125 -0.03125 0.6875l-4.484375 0q0.0625 1.359375 0.546875 1.953125q0.484375 0.59375 1.3125 0.59375q0.53125 0 0.953125 -0.15625q0.421875 -0.171875 0.875 -0.53125l0.578125 0.765625q-1.078125 0.96875 -2.453125 0.96875q-1.515625 0 -2.34375 -1.046875q-0.828125 -1.046875 -0.828125 -2.9375q0 -1.890625 0.78125 -3.0q0.796875 -1.109375 2.203125 -1.109375q1.390625 0 2.140625 1.0q0.75 0.984375 0.75 2.8125zm-1.28125 -0.390625q0 -2.421875 -1.59375 -2.421875q-0.734375 0 -1.15625 0.609375q-0.421875 0.609375 -0.484375 1.96875l3.234375 0l0 -0.15625z" fill-rule="nonzero"/><path fill="#008dd5" d="m264.021 228.61736l123.811035 0l0 35.307083l-123.811035 0z" fill-rule="evenodd"/><path fill="#000000" d="m311.2582 252.97736l0 -5.171875l-4.0 0l0 5.171875l-1.484375 0l0 -11.015625l1.484375 0l0 4.625l4.0 0l0 -4.625l1.5 0l0 11.015625l-1.5 0zm10.055389 -4.46875q0 0.34375 -0.03125 0.75l-4.90625 0q0.078125 1.484375 0.59375 2.140625q0.53125 0.640625 1.4375 0.640625q0.578125 0 1.03125 -0.171875q0.46875 -0.1875 0.953125 -0.59375l0.640625 0.859375q-1.171875 1.046875 -2.6875 1.046875q-1.640625 0 -2.546875 -1.140625q-0.90625 -1.140625 -0.90625 -3.203125q0 -2.0625 0.859375 -3.265625q0.875 -1.21875 2.40625 -1.21875q1.515625 0 2.328125 1.078125q0.828125 1.078125 0.828125 3.078125zm-1.390625 -0.421875q0 -2.640625 -1.75 -2.640625q-0.796875 0 -1.265625 0.671875q-0.453125 0.65625 -0.53125 2.140625l3.546875 0l0 -0.171875zm8.494415 2.96875q0 0.515625 0.140625 0.765625q0.140625 0.25 0.453125 0.375l-0.3125 0.96875q-0.625 -0.09375 -0.984375 -0.375q-0.34375 -0.296875 -0.484375 -0.890625q-0.8125 1.28125 -2.28125 1.28125q-1.125 0 -1.78125 -0.6875q-0.65625 -0.703125 -0.65625 -1.875q0 -1.34375 0.875 -2.046875q0.890625 -0.703125 2.515625 -0.703125l1.09375 0l0 -0.71875q0 -0.875 -0.359375 -1.265625q-0.359375 -0.390625 -1.1875 -0.390625q-0.875 0 -2.046875 0.4375l-0.34375 -1.0q1.40625 -0.578125 2.625 -0.578125q2.734375 0 2.734375 2.734375l0 3.96875zm-3.140625 1.046875q1.125 0 1.71875 -1.3125l0 -1.984375l-0.9375 0q-2.078125 0 -2.078125 1.734375q0 0.75 0.328125 1.15625q0.34375 0.40625 0.96875 0.40625zm7.1487427 1.078125q-0.765625 0 -1.21875 -0.453125q-0.4375 -0.46875 -0.4375 -1.296875l0 -10.28125l1.4375 -0.15625l0 10.390625q0 0.625 0.515625 0.625q0.203125 0 0.453125 -0.109375l0.328125 1.015625q-0.515625 0.265625 -1.078125 0.265625zm6.6302795 -0.578125q-0.796875 0.578125 -1.78125 0.578125q-1.015625 0 -1.578125 -0.578125q-0.546875 -0.59375 -0.546875 -1.671875l0 -5.28125l-1.203125 0l0 -1.09375l1.203125 0l0 -1.9375l1.4375 -0.171875l0 2.109375l1.859375 0l-0.15625 1.09375l-1.703125 0l0 5.265625q0 1.09375 0.921875 1.09375q0.265625 0 0.5 -0.078125q0.234375 -0.09375 0.515625 -0.25l0.53125 0.921875zm5.0132446 -8.25q1.0 0 1.5625 0.671875q0.578125 0.671875 0.578125 1.828125l0 6.125l-1.4375 0l0 -5.953125q0 -0.8125 -0.28125 -1.171875q-0.28125 -0.359375 -0.828125 -0.359375q-1.0625 0 -1.921875 1.5l0 5.984375l-1.4375 0l0 -11.8125l1.4375 -0.15625l0 4.75q0.46875 -0.6875 1.015625 -1.046875q0.5625 -0.359375 1.3125 -0.359375z" fill-rule="nonzero"/><path fill="#008dd5" d="m264.021 271.80777l123.811035 0l0 35.3071l-123.811035 0z" fill-rule="evenodd"/><path fill="#000000" d="m314.5835 285.15216q1.4375 0 2.484375 0.4375q1.0625 0.4375 1.71875 1.640625q0.671875 1.1875 0.671875 3.375q0 3.09375 -1.328125 4.328125q-1.3125 1.234375 -3.328125 1.234375l-2.484375 0l0 -11.015625l2.265625 0zm-0.78125 1.171875l0 8.6875l1.09375 0q1.375 0 2.1875 -0.953125q0.8125 -0.953125 0.8125 -3.453125q0 -1.765625 -0.421875 -2.703125q-0.421875 -0.953125 -1.09375 -1.265625q-0.65625 -0.3125 -1.5625 -0.3125l-1.015625 0zm12.839142 7.921875q0 0.515625 0.140625 0.765625q0.140625 0.25 0.453125 0.375l-0.3125 0.96875q-0.625 -0.09375 -0.984375 -0.375q-0.34375 -0.296875 -0.484375 -0.890625q-0.8125 1.28125 -2.28125 1.28125q-1.125 0 -1.78125 -0.6875q-0.65625 -0.703125 -0.65625 -1.875q0 -1.34375 0.875 -2.046875q0.890625 -0.703125 2.515625 -0.703125l1.09375 0l0 -0.71875q0 -0.875 -0.359375 -1.265625q-0.359375 -0.390625 -1.1875 -0.390625q-0.875 0 -2.046875 0.4375l-0.34375 -1.0q1.40625 -0.578125 2.625 -0.578125q2.734375 0 2.734375 2.734375l0 3.96875zm-3.140625 1.046875q1.125 0 1.71875 -1.3125l0 -1.984375l-0.9375 0q-2.078125 0 -2.078125 1.734375q0 0.75 0.328125 1.15625q0.34375 0.40625 0.96875 0.40625zm9.714996 0.5q-0.796875 0.578125 -1.78125 0.578125q-1.015625 0 -1.578125 -0.578125q-0.546875 -0.59375 -0.546875 -1.671875l0 -5.28125l-1.203125 0l0 -1.09375l1.203125 0l0 -1.9375l1.4375 -0.171875l0 2.109375l1.859375 0l-0.15625 1.09375l-1.703125 0l0 5.265625q0 1.09375 0.921875 1.09375q0.265625 0 0.5 -0.078125q0.234375 -0.09375 0.515625 -0.25l0.53125 0.921875zm6.3856506 -1.546875q0 0.515625 0.140625 0.765625q0.140625 0.25 0.453125 0.375l-0.3125 0.96875q-0.625 -0.09375 -0.984375 -0.375q-0.34375 -0.296875 -0.484375 -0.890625q-0.8125 1.28125 -2.28125 1.28125q-1.125 0 -1.78125 -0.6875q-0.65625 -0.703125 -0.65625 -1.875q0 -1.34375 0.875 -2.046875q0.890625 -0.703125 2.515625 -0.703125l1.09375 0l0 -0.71875q0 -0.875 -0.359375 -1.265625q-0.359375 -0.390625 -1.1875 -0.390625q-0.875 0 -2.046875 0.4375l-0.34375 -1.0q1.40625 -0.578125 2.625 -0.578125q2.734375 0 2.734375 2.734375l0 3.96875zm-3.140625 1.046875q1.125 0 1.71875 -1.3125l0 -1.984375l-0.9375 0q-2.078125 0 -2.078125 1.734375q0 0.75 0.328125 1.15625q0.34375 0.40625 0.96875 0.40625z" fill-rule="nonzero"/><path fill="#000000" fill-opacity="0.0" d="m387.83203 246.27089c63.338562 0 95.00787 -0.99212646 126.677185 -1.9842529c31.66925 -0.99212646 63.338562 -1.9842529 126.677124 -1.9842529" fill-rule="evenodd"/><path stroke="#999999" stroke-width="2.0" stroke-linejoin="round" stroke-linecap="butt" stroke-dasharray="8.0,6.0" d="m387.83203 246.27089c63.338562 0 95.00787 -0.99212646 126.677185 -1.9842529c31.66925 -0.99212646 63.338562 -1.9842529 126.677124 -1.9842529" fill-rule="evenodd"/><path fill="#000000" fill-opacity="0.0" d="m387.83203 289.4613c63.338562 0 95.00787 -11.787384 126.677185 -23.574799c31.66925 -11.787384 63.338562 -23.574799 126.677124 -23.574799" fill-rule="evenodd"/><path stroke="#000000" stroke-width="2.0" stroke-linejoin="round" stroke-linecap="butt" d="m387.83203 289.4613c63.338562 0 95.00787 -11.787384 126.677185 -23.574799c31.66925 -11.787384 63.338562 -23.574799 126.677124 -23.574799" fill-rule="evenodd"/><path fill="#000000" fill-opacity="0.0" d="m515.49603 373.5958l23.527588 0" fill-rule="evenodd"/><path stroke="#000000" stroke-width="2.0" stroke-linejoin="round" stroke-linecap="butt" d="m515.49603 373.5958l23.527588 0" fill-rule="evenodd"/><path fill="#000000" fill-opacity="0.0" d="m512.1811 392.26773l30.992126 0" fill-rule="evenodd"/><path stroke="#999999" stroke-width="2.0" stroke-linejoin="round" stroke-linecap="butt" stroke-dasharray="8.0,6.0" d="m512.1811 392.26773l30.992126 0" fill-rule="evenodd"/><path fill="#373f51" d="m264.021 142.2365l123.811035 0l0 35.307083l-123.811035 0z" fill-rule="evenodd"/><path fill="#f3f3f3" d="m301.66656 155.58087l-0.171875 1.15625l-3.8125 0l0 3.640625l3.3125 0l0 1.140625l-3.3125 0l0 3.90625l4.03125 0l0 1.171875l-5.515625 0l0 -11.015625l5.46875 0zm4.574646 2.390625q0.671875 0 1.234375 0.234375q0.5625 0.21875 1.078125 0.671875l-0.640625 0.875q-0.390625 -0.3125 -0.78125 -0.453125q-0.375 -0.15625 -0.828125 -0.15625q-0.9375 0 -1.46875 0.796875q-0.515625 0.796875 -0.515625 2.5q0 3.171875 1.984375 3.171875q0.453125 0 0.8125 -0.15625q0.375 -0.15625 0.796875 -0.453125l0.671875 0.875q-1.03125 0.921875 -2.328125 0.921875q-1.609375 0 -2.53125 -1.109375q-0.921875 -1.125 -0.921875 -3.234375q0 -1.375 0.421875 -2.375q0.421875 -1.015625 1.203125 -1.5625q0.78125 -0.546875 1.8125 -0.546875zm6.5440063 0q1.625 0 2.515625 1.140625q0.890625 1.125 0.890625 3.265625q0 2.046875 -0.90625 3.234375q-0.90625 1.1875 -2.515625 1.1875q-1.609375 0 -2.515625 -1.15625q-0.90625 -1.171875 -0.90625 -3.25q0 -2.09375 0.90625 -3.25q0.921875 -1.171875 2.53125 -1.171875zm0 1.15625q-0.9375 0 -1.4375 0.796875q-0.5 0.78125 -0.5 2.46875q0 3.28125 1.921875 3.28125q1.921875 0 1.921875 -3.296875q0 -1.6875 -0.484375 -2.46875q-0.46875 -0.78125 -1.421875 -0.78125zm9.259766 -1.15625q1.0 0 1.5625 0.671875q0.578125 0.65625 0.578125 1.828125l0 6.125l-1.4375 0l0 -5.953125q0 -0.8125 -0.28125 -1.171875q-0.265625 -0.359375 -0.828125 -0.359375q-1.0625 0 -1.921875 1.5l0 5.984375l-1.4375 0l0 -8.421875l1.25 0l0.109375 1.25q0.96875 -1.453125 2.40625 -1.453125zm7.588257 0q1.625 0 2.515625 1.140625q0.890625 1.125 0.890625 3.265625q0 2.046875 -0.90625 3.234375q-0.90625 1.1875 -2.515625 1.1875q-1.609375 0 -2.515625 -1.15625q-0.90625 -1.171875 -0.90625 -3.25q0 -2.09375 0.90625 -3.25q0.921875 -1.171875 2.53125 -1.171875zm0 1.15625q-0.9375 0 -1.4375 0.796875q-0.5 0.78125 -0.5 2.46875q0 3.28125 1.921875 3.28125q1.921875 0 1.921875 -3.296875q0 -1.6875 -0.484375 -2.46875q-0.46875 -0.78125 -1.421875 -0.78125zm13.275391 -1.15625q0.90625 0 1.453125 0.6875q0.546875 0.671875 0.546875 1.8125l0 6.125l-1.4375 0l0 -5.96875q0 -1.53125 -0.984375 -1.53125q-0.953125 0 -1.765625 1.46875l0 6.03125l-1.421875 0l0 -5.96875q0 -1.53125 -0.984375 -1.53125q-0.984375 0 -1.765625 1.46875l0 6.03125l-1.421875 0l0 -8.421875l1.25 0l0.109375 1.234375q0.921875 -1.4375 2.234375 -1.4375q0.6875 0 1.171875 0.40625q0.484375 0.390625 0.6875 1.125q0.984375 -1.53125 2.328125 -1.53125zm5.9602966 0.203125l0 8.421875l-1.4375 0l0 -8.421875l1.4375 0zm-0.71875 -3.96875q0.40625 0 0.671875 0.28125q0.265625 0.265625 0.265625 0.671875q0 0.390625 -0.25 0.65625q-0.25 0.265625 -0.6875 0.265625q-0.421875 0 -0.6875 -0.265625q-0.265625 -0.265625 -0.265625 -0.65625q0 -0.40625 0.265625 -0.671875q0.265625 -0.28125 0.6875 -0.28125zm6.235138 3.765625q0.671875 0 1.234375 0.234375q0.5625 0.21875 1.078125 0.671875l-0.640625 0.875q-0.390625 -0.3125 -0.78125 -0.453125q-0.375 -0.15625 -0.828125 -0.15625q-0.9375 0 -1.46875 0.796875q-0.515625 0.796875 -0.515625 2.5q0 3.171875 1.984375 3.171875q0.453125 0 0.8125 -0.15625q0.375 -0.15625 0.796875 -0.453125l0.671875 0.875q-1.03125 0.921875 -2.328125 0.921875q-1.609375 0 -2.53125 -1.109375q-0.921875 -1.125 -0.921875 -3.234375q0 -1.375 0.421875 -2.375q0.421875 -1.015625 1.203125 -1.5625q0.78125 -0.546875 1.8125 -0.546875z" fill-rule="nonzero"/><path fill="#000000" fill-opacity="0.0" d="m387.83203 159.89005c63.338562 0 95.00787 20.606293 126.677185 41.212585c31.66925 20.606308 63.338562 41.2126 126.677124 41.2126" fill-rule="evenodd"/><path stroke="#000000" stroke-width="2.0" stroke-linejoin="round" stroke-linecap="butt" d="m387.83203 159.89005c63.338562 0 95.00787 20.606293 126.677185 41.212585c31.66925 20.606308 63.338562 41.2126 126.677124 41.2126" fill-rule="evenodd"/><path fill="#373f51" d="m136.71654 83.20998l117.102356 0l0 67.2126l-117.102356 0z" fill-rule="evenodd"/><path fill="#f3f3f3" d="m184.75499 107.7219l-1.078125 0l0 4.734375l-2.484375 0l0 -11.984375l3.328125 0q4.609375 0 4.609375 3.5625q0 2.34375 -2.109375 3.21875l2.765625 5.203125l-2.765625 0l-2.265625 -4.734375zm-0.125 -1.75q1.0 0 1.453125 -0.46875q0.453125 -0.46875 0.453125 -1.46875q0 -0.921875 -0.5 -1.34375q-0.484375 -0.4375 -1.53125 -0.4375l-0.828125 0l0 3.71875l0.953125 0zm8.590912 -2.703125l0 9.1875l-2.421875 0l0 -9.1875l2.421875 0zm-1.203125 -4.6875q0.625 0 1.03125 0.40625q0.40625 0.390625 0.40625 1.0q0 0.59375 -0.40625 1.0q-0.40625 0.40625 -1.03125 0.40625q-0.625 0 -1.03125 -0.40625q-0.40625 -0.40625 -0.40625 -1.0q0 -0.609375 0.40625 -1.0q0.40625 -0.40625 1.03125 -0.40625zm6.111252 4.40625q0.890625 0 1.671875 0.296875q0.78125 0.28125 1.359375 0.8125l-0.890625 1.34375q-1.0625 -0.703125 -2.0 -0.703125q-0.53125 0 -0.828125 0.234375q-0.28125 0.234375 -0.28125 0.640625q0 0.296875 0.140625 0.484375q0.140625 0.1875 0.5 0.390625q0.375 0.1875 1.09375 0.421875q1.296875 0.4375 1.921875 1.09375q0.640625 0.65625 0.640625 1.78125q0 1.375 -1.046875 2.171875q-1.03125 0.78125 -2.609375 0.78125q-1.03125 0 -1.90625 -0.359375q-0.875 -0.359375 -1.515625 -0.96875l1.15625 -1.296875q1.109375 0.875 2.1875 0.875q0.59375 0 0.9375 -0.265625q0.34375 -0.28125 0.34375 -0.765625q0 -0.359375 -0.140625 -0.578125q-0.140625 -0.234375 -0.515625 -0.421875q-0.375 -0.1875 -1.125 -0.453125q-1.28125 -0.4375 -1.875 -1.09375q-0.578125 -0.65625 -0.578125 -1.65625q0 -0.78125 0.40625 -1.40625q0.40625 -0.625 1.171875 -0.984375q0.765625 -0.375 1.78125 -0.375zm7.100189 -3.625l0 13.09375l-2.421875 0l0 -12.84375l2.421875 -0.25zm5.109375 3.90625l-2.609375 4.046875l2.8125 5.140625l-2.65625 0l-2.578125 -5.03125l2.625 -4.15625l2.40625 0z" fill-rule="nonzero"/><path fill="#f3f3f3" d="m160.88525 121.4719q2.28125 0 3.484375 0.96875q1.21875 0.96875 1.21875 2.875q0 2.0 -1.203125 3.0156174q-1.1875 1.015625 -3.28125 1.015625l-0.984375 0l0 4.109375l-2.484375 0l0 -11.984367l3.25 0zm0.03125 6.046875q1.0625 0 1.578125 -0.5q0.53125 -0.515625 0.53125 -1.6875q0 -1.0625 -0.53125 -1.5625q-0.515625 -0.5 -1.59375 -0.5l-0.78125 0l0 4.25l0.796875 0zm12.694794 1.1406174q0 0.53125 -0.0625 0.9375l-5.15625 0q0.109375 1.296875 0.578125 1.8125q0.46875 0.515625 1.296875 0.515625q0.546875 0 1.015625 -0.171875q0.484375 -0.1875 1.03125 -0.59375l0.984375 1.34375q-1.40625 1.234375 -3.203125 1.234375q-2.015625 0 -3.078125 -1.265625q-1.046875 -1.28125 -1.046875 -3.5625q0 -2.2187424 1.0 -3.5624924q1.015625 -1.359375 2.859375 -1.359375q1.78125 0 2.78125 1.21875q1.0 1.203125 1.0 3.4531174zm-2.359375 -0.7031174q0 -1.15625 -0.328125 -1.734375q-0.328125 -0.578125 -1.0625 -0.578125q-0.671875 0 -1.046875 0.5625q-0.359375 0.546875 -0.421875 1.8749924l2.859375 0l0 -0.12499237zm8.358322 -3.921875q0.4375 0 0.8125 0.109375l-0.40625 2.328125q-0.359375 -0.109375 -0.71875 -0.109375q-0.734375 0 -1.140625 0.546875q-0.390625 0.546875 -0.609375 1.6562424l0 4.890625l-2.421875 0l0 -9.187492l2.109375 0l0.1875 1.671875q0.328125 -0.921875 0.875 -1.40625q0.5625 -0.5 1.3125 -0.5zm4.9280396 -0.046875q0.828125 0 1.5 0.28125q0.6875 0.265625 1.296875 0.8125l-1.046875 1.390625q-0.796875 -0.609375 -1.578125 -0.609375q-0.84375 0 -1.265625 0.703125q-0.421875 0.703125 -0.421875 2.3437424q0 1.59375 0.421875 2.25q0.4375 0.65625 1.25 0.65625q0.421875 0 0.765625 -0.140625q0.359375 -0.140625 0.8125 -0.453125l1.0625 1.4375q-1.21875 1.078125 -2.765625 1.078125q-1.921875 0 -3.0 -1.25q-1.078125 -1.25 -1.078125 -3.546875q0 -1.4999924 0.484375 -2.6093674q0.5 -1.125 1.40625 -1.734375q0.921875 -0.609375 2.15625 -0.609375zm10.767441 4.6718674q0 0.53125 -0.0625 0.9375l-5.15625 0q0.109375 1.296875 0.578125 1.8125q0.46875 0.515625 1.296875 0.515625q0.546875 0 1.015625 -0.171875q0.484375 -0.1875 1.03125 -0.59375l0.984375 1.34375q-1.40625 1.234375 -3.203125 1.234375q-2.015625 0 -3.078125 -1.265625q-1.046875 -1.28125 -1.046875 -3.5625q0 -2.2187424 1.0 -3.5624924q1.015625 -1.359375 2.859375 -1.359375q1.78125 0 2.78125 1.21875q1.0 1.203125 1.0 3.4531174zm-2.359375 -0.7031174q0 -1.15625 -0.328125 -1.734375q-0.328125 -0.578125 -1.0625 -0.578125q-0.671875 0 -1.046875 0.5625q-0.359375 0.546875 -0.421875 1.8749924l2.859375 0l0 -0.12499237zm8.545822 -3.96875q1.515625 0 2.28125 1.265625q0.78125 1.25 0.78125 3.5937424q0 1.453125 -0.40625 2.5625q-0.390625 1.09375 -1.140625 1.71875q-0.734375 0.609375 -1.75 0.609375q-1.25 0 -2.015625 -0.96875l0 4.21875l-2.421875 0.265625l0 -12.984367l2.140625 0l0.125 1.0625q0.921875 -1.34375 2.40625 -1.34375zm-0.921875 7.9374924q1.484375 0 1.484375 -3.0625q0 -1.7031174 -0.34375 -2.3749924q-0.328125 -0.6875 -0.984375 -0.6875q-0.859375 0 -1.484375 1.125l0 4.1562424q0.546875 0.84375 1.328125 0.84375zm10.765091 1.09375q-0.453125 0.34375 -1.046875 0.53125q-0.59375 0.1875 -1.171875 0.1875q-1.34375 0 -2.03125 -0.765625q-0.671875 -0.765625 -0.671875 -2.125l0 -4.8593674l-1.1875 0l0 -1.71875l1.1875 0l0 -2.0l2.40625 -0.296875l0 2.296875l1.90625 0l-0.25 1.71875l-1.65625 0l0 4.8281174q0 1.0 0.78125 1.0q0.40625 0 0.921875 -0.28125l0.8125 1.484375zm3.2940674 -8.749992l0 9.187492l-2.421875 0l0 -9.187492l2.421875 0zm-1.203125 -4.6875q0.625 0 1.03125 0.40625q0.40625 0.390625 0.40625 1.0q0 0.59375 -0.40625 1.0q-0.40625 0.40625 -1.03125 0.40625q-0.625 0 -1.03125 -0.40625q-0.40625 -0.40625 -0.40625 -1.0q0 -0.609375 0.40625 -1.0q0.40625 -0.40625 1.03125 -0.40625zm6.861252 4.40625q1.890625 0 2.953125 1.265625q1.0625 1.25 1.0625 3.6093674q0 2.265625 -1.078125 3.578125q-1.0625 1.296875 -2.953125 1.296875q-1.890625 0 -2.953125 -1.265625q-1.0625 -1.265625 -1.0625 -3.609375q0 -2.2968674 1.0625 -3.5781174q1.0625 -1.296875 2.96875 -1.296875zm0 1.8125q-0.78125 0 -1.171875 0.734375q-0.375 0.71875 -0.375 2.3281174q0 1.640625 0.375 2.359375q0.375 0.703125 1.15625 0.703125q0.78125 0 1.15625 -0.71875q0.390625 -0.734375 0.390625 -2.34375q0 -1.6249924 -0.375 -2.3437424q-0.375 -0.71875 -1.15625 -0.71875zm10.42334 -1.8125q1.078125 0 1.6875 0.734375q0.625 0.71875 0.625 1.953125l0 6.7812424l-2.40625 0l0 -6.4531174q0 -0.640625 -0.203125 -0.90625q-0.203125 -0.28125 -0.578125 -0.28125q-0.78125 0 -1.5 1.265625l0 6.3749924l-2.421875 0l0 -9.187492l2.109375 0l0.171875 1.171875q0.515625 -0.71875 1.109375 -1.078125q0.59375 -0.375 1.40625 -0.375z" fill-rule="nonzero"/><path fill="#008dd5" d="m136.71654 236.65529l117.102356 0l0 67.2126l-117.102356 0z" fill-rule="evenodd"/><path fill="#000000" d="m154.36165 261.1672l-1.078125 0l0 4.734375l-2.484375 0l0 -11.98436l3.328125 0q4.609375 0 4.609375 3.5624847q0 2.34375 -2.109375 3.21875l2.765625 5.203125l-2.765625 0l-2.265625 -4.734375zm-0.125 -1.75q1.0 0 1.453125 -0.46875q0.453125 -0.46875 0.453125 -1.46875q0 -0.921875 -0.5 -1.34375q-0.484375 -0.43748474 -1.53125 -0.43748474l-0.828125 0l0 3.7187347l0.953125 0zm8.590912 -2.703125l0 9.1875l-2.421875 0l0 -9.1875l2.421875 0zm-1.203125 -4.6874847q0.625 0 1.03125 0.40625q0.40625 0.390625 0.40625 1.0q0 0.59375 -0.40625 1.0q-0.40625 0.40625 -1.03125 0.40625q-0.625 0 -1.03125 -0.40625q-0.40625 -0.40625 -0.40625 -1.0q0 -0.609375 0.40625 -1.0q0.40625 -0.40625 1.03125 -0.40625zm6.111252 4.4062347q0.890625 0 1.671875 0.296875q0.78125 0.28125 1.359375 0.8125l-0.890625 1.34375q-1.0625 -0.703125 -2.0 -0.703125q-0.53125 0 -0.828125 0.234375q-0.28125 0.234375 -0.28125 0.640625q0 0.296875 0.140625 0.484375q0.140625 0.1875 0.5 0.390625q0.375 0.1875 1.09375 0.421875q1.296875 0.4375 1.921875 1.09375q0.640625 0.65625 0.640625 1.78125q0 1.375 -1.046875 2.171875q-1.03125 0.78125 -2.609375 0.78125q-1.03125 0 -1.90625 -0.359375q-0.875 -0.359375 -1.515625 -0.96875l1.15625 -1.296875q1.109375 0.875 2.1875 0.875q0.59375 0 0.9375 -0.265625q0.34375 -0.28125 0.34375 -0.765625q0 -0.359375 -0.140625 -0.578125q-0.140625 -0.234375 -0.515625 -0.421875q-0.375 -0.1875 -1.125 -0.453125q-1.28125 -0.4375 -1.875 -1.09375q-0.578125 -0.65625 -0.578125 -1.65625q0 -0.78125 0.40625 -1.40625q0.40625 -0.625 1.171875 -0.984375q0.765625 -0.375 1.78125 -0.375zm7.100189 -3.6249847l0 13.093735l-2.421875 0l0 -12.843735l2.421875 -0.25zm5.109375 3.9062347l-2.609375 4.046875l2.8125 5.140625l-2.65625 0l-2.578125 -5.03125l2.625 -4.15625l2.40625 0zm8.276749 -3.0781097q1.1875 0 2.078125 0.390625q0.890625 0.375 1.625 1.109375l-1.15625 1.3437347q-0.5625 -0.49998474 -1.140625 -0.73435974q-0.578125 -0.234375 -1.203125 -0.234375q-0.703125 0 -1.109375 0.359375q-0.40625 0.34373474 -0.40625 0.96873474q0 0.421875 0.171875 0.703125q0.1875 0.28125 0.640625 0.546875q0.453125 0.25 1.3125 0.5625q1.078125 0.40625 1.765625 0.875q0.6875 0.46875 1.046875 1.1875q0.375 0.703125 0.375 1.734375q0 1.078125 -0.515625 1.921875q-0.5 0.84375 -1.46875 1.328125q-0.96875 0.484375 -2.28125 0.484375q-2.4375 0 -4.0625 -1.671875l1.25 -1.375q0.65625 0.5625 1.296875 0.859375q0.65625 0.296875 1.40625 0.296875q0.84375 0 1.3125 -0.453125q0.46875 -0.453125 0.46875 -1.234375q0 -0.6875 -0.421875 -1.109375q-0.421875 -0.421875 -1.578125 -0.84375q-1.765625 -0.65625 -2.53125 -1.484375q-0.75 -0.84375 -0.75 -2.15625q0 -0.984375 0.5 -1.7499847q0.5 -0.78125 1.375 -1.203125q0.890625 -0.421875 2.0 -0.421875zm12.654907 7.4687347q0 0.53125 -0.0625 0.9375l-5.15625 0q0.109375 1.296875 0.578125 1.8125q0.46875 0.515625 1.296875 0.515625q0.546875 0 1.015625 -0.171875q0.484375 -0.1875 1.03125 -0.59375l0.984375 1.34375q-1.40625 1.234375 -3.203125 1.234375q-2.015625 0 -3.078125 -1.265625q-1.046875 -1.28125 -1.046875 -3.5625q0 -2.21875 1.0 -3.5625q1.015625 -1.359375 2.859375 -1.359375q1.78125 0 2.78125 1.21875q1.0 1.203125 1.0 3.453125zm-2.359375 -0.703125q0 -1.15625 -0.328125 -1.734375q-0.328125 -0.578125 -1.0625 -0.578125q-0.671875 0 -1.046875 0.5625q-0.359375 0.546875 -0.421875 1.875l2.859375 0l0 -0.125zm11.092697 0.703125q0 0.53125 -0.0625 0.9375l-5.15625 0q0.109375 1.296875 0.578125 1.8125q0.46875 0.515625 1.296875 0.515625q0.546875 0 1.015625 -0.171875q0.484375 -0.1875 1.03125 -0.59375l0.984375 1.34375q-1.40625 1.234375 -3.203125 1.234375q-2.015625 0 -3.078125 -1.265625q-1.046875 -1.28125 -1.046875 -3.5625q0 -2.21875 1.0 -3.5625q1.015625 -1.359375 2.859375 -1.359375q1.78125 0 2.78125 1.21875q1.0 1.203125 1.0 3.453125zm-2.359375 -0.703125q0 -1.15625 -0.328125 -1.734375q-0.328125 -0.578125 -1.0625 -0.578125q-0.671875 0 -1.046875 0.5625q-0.359375 0.546875 -0.421875 1.875l2.859375 0l0 -0.125zm6.295822 -7.5937347l0 13.093735l-2.421875 0l0 -12.843735l2.421875 -0.25zm5.109375 3.9062347l-2.609375 4.046875l2.8125 5.140625l-2.65625 0l-2.578125 -5.03125l2.625 -4.15625l2.40625 0zm3.5199738 0l0 9.1875l-2.421875 0l0 -9.1875l2.421875 0zm-1.203125 -4.6874847q0.625 0 1.03125 0.40625q0.40625 0.390625 0.40625 1.0q0 0.59375 -0.40625 1.0q-0.40625 0.40625 -1.03125 0.40625q-0.625 0 -1.03125 -0.40625q-0.40625 -0.40625 -0.40625 -1.0q0 -0.609375 0.40625 -1.0q0.40625 -0.40625 1.03125 -0.40625zm8.048752 4.4062347q1.078125 0 1.6875 0.734375q0.625 0.71875 0.625 1.953125l0 6.78125l-2.40625 0l0 -6.453125q0 -0.640625 -0.203125 -0.90625q-0.203125 -0.28125 -0.578125 -0.28125q-0.78125 0 -1.5 1.265625l0 6.375l-2.421875 0l0 -9.1875l2.109375 0l0.171875 1.171875q0.515625 -0.71875 1.109375 -1.078125q0.59375 -0.375 1.40625 -0.375zm11.82988 0.78125q-0.796875 0.328125 -2.375 0.328125q0.796875 0.375 1.171875 0.953125q0.390625 0.5625 0.390625 1.421875q0 1.375 -0.9375 2.234375q-0.9375 0.84375 -2.546875 0.84375q-0.5 0 -0.953125 -0.109375q-0.140625 0.09375 -0.234375 0.265625q-0.078125 0.171875 -0.078125 0.359375q0 0.296875 0.1875 0.46875q0.203125 0.15625 0.765625 0.15625l1.15625 0q1.46875 0 2.359375 0.734375q0.890625 0.71875 0.890625 1.859375q0 1.375 -1.125 2.171875q-1.125 0.796875 -3.171875 0.796875q-2.21875 0 -3.09375 -0.734375q-0.859375 -0.734375 -0.859375 -2.171875l2.140625 0q0 0.6875 0.375 0.984375q0.375 0.296875 1.453125 0.296875q1.015625 0 1.421875 -0.3125q0.421875 -0.296875 0.421875 -0.859375q0 -1.046875 -1.328125 -1.046875l-0.96875 0q-1.359375 0 -2.0 -0.484375q-0.640625 -0.484375 -0.640625 -1.28125q0 -0.515625 0.265625 -0.953125q0.28125 -0.4375 0.75 -0.75q-0.796875 -0.453125 -1.15625 -1.078125q-0.359375 -0.625 -0.359375 -1.546875q0 -1.515625 1.0 -2.421875q1.015625 -0.90625 2.671875 -0.875q1.25 0.015625 2.0625 -0.25q0.8125 -0.28123474 1.734375 -0.81248474l0.609375 1.8124847zm-4.40625 0.84375q-0.625 0 -0.953125 0.421875q-0.328125 0.421875 -0.328125 1.25q0 0.828125 0.328125 1.28125q0.34375 0.4375 0.953125 0.4375q0.640625 0 0.953125 -0.40625q0.328125 -0.421875 0.328125 -1.34375q0 -0.84375 -0.328125 -1.234375q-0.3125 -0.40625 -0.953125 -0.40625z" fill-rule="nonzero"/><path fill="#000000" d="m161.00662 274.9172q2.28125 0 3.484375 0.96875q1.21875 0.96875 1.21875 2.875q0 2.0 -1.203125 3.015625q-1.1875 1.015625 -3.28125 1.015625l-0.984375 0l0 4.109375l-2.484375 0l0 -11.984375l3.25 0zm0.03125 6.046875q1.0625 0 1.578125 -0.5q0.53125 -0.515625 0.53125 -1.6875q0 -1.0625 -0.53125 -1.5625q-0.515625 -0.5 -1.59375 -0.5l-0.78125 0l0 4.25l0.796875 0zm10.133759 -3.484375q0.4375 0 0.8125 0.109375l-0.40625 2.328125q-0.359375 -0.109375 -0.71875 -0.109375q-0.734375 0 -1.140625 0.546875q-0.390625 0.546875 -0.609375 1.65625l0 4.890625l-2.421875 0l0 -9.1875l2.109375 0l0.1875 1.671875q0.328125 -0.921875 0.875 -1.40625q0.5625 -0.5 1.3125 -0.5zm8.52179 4.625q0 0.53125 -0.0625 0.9375l-5.15625 0q0.109375 1.296875 0.578125 1.8125q0.46875 0.515625 1.296875 0.515625q0.546875 0 1.015625 -0.171875q0.484375 -0.1875 1.03125 -0.59375l0.984375 1.34375q-1.40625 1.234375 -3.203125 1.234375q-2.015625 0 -3.078125 -1.265625q-1.046875 -1.28125 -1.046875 -3.5625q0 -2.21875 1.0 -3.5625q1.015625 -1.359375 2.859375 -1.359375q1.78125 0 2.78125 1.21875q1.0 1.203125 1.0 3.453125zm-2.359375 -0.703125q0 -1.15625 -0.328125 -1.734375q-0.328125 -0.578125 -1.0625 -0.578125q-0.671875 0 -1.046875 0.5625q-0.359375 0.546875 -0.421875 1.875l2.859375 0l0 -0.125zm7.623947 -5.796875q-0.53125 0 -0.78125 0.265625q-0.234375 0.25 -0.234375 0.84375l0 1.0l1.921875 0l-0.265625 1.71875l-1.65625 0l0 7.46875l-2.421875 0l0 -7.46875l-1.234375 0l0 -1.71875l1.234375 0l0 -0.984375q0 -1.3125 0.8125 -2.109375q0.828125 -0.8125 2.328125 -0.8125q1.140625 0 2.25 0.53125l-0.65625 1.578125q-0.640625 -0.3125 -1.296875 -0.3125zm8.8923645 6.5q0 0.53125 -0.0625 0.9375l-5.15625 0q0.109375 1.296875 0.578125 1.8125q0.46875 0.515625 1.296875 0.515625q0.546875 0 1.015625 -0.171875q0.484375 -0.1875 1.03125 -0.59375l0.984375 1.34375q-1.40625 1.234375 -3.203125 1.234375q-2.015625 0 -3.078125 -1.265625q-1.046875 -1.28125 -1.046875 -3.5625q0 -2.21875 1.0 -3.5625q1.015625 -1.359375 2.859375 -1.359375q1.78125 0 2.78125 1.21875q1.0 1.203125 1.0 3.453125zm-2.359375 -0.703125q0 -1.15625 -0.328125 -1.734375q-0.328125 -0.578125 -1.0625 -0.578125q-0.671875 0 -1.046875 0.5625q-0.359375 0.546875 -0.421875 1.875l2.859375 0l0 -0.125zm8.358322 -3.921875q0.4375 0 0.8125 0.109375l-0.40625 2.328125q-0.359375 -0.109375 -0.71875 -0.109375q-0.734375 0 -1.140625 0.546875q-0.390625 0.546875 -0.609375 1.65625l0 4.890625l-2.421875 0l0 -9.1875l2.109375 0l0.1875 1.671875q0.328125 -0.921875 0.875 -1.40625q0.5625 -0.5 1.3125 -0.5zm8.52179 4.625q0 0.53125 -0.0625 0.9375l-5.15625 0q0.109375 1.296875 0.578125 1.8125q0.46875 0.515625 1.296875 0.515625q0.546875 0 1.015625 -0.171875q0.484375 -0.1875 1.03125 -0.59375l0.984375 1.34375q-1.40625 1.234375 -3.203125 1.234375q-2.015625 0 -3.078125 -1.265625q-1.046875 -1.28125 -1.046875 -3.5625q0 -2.21875 1.0 -3.5625q1.015625 -1.359375 2.859375 -1.359375q1.78125 0 2.78125 1.21875q1.0 1.203125 1.0 3.453125zm-2.359375 -0.703125q0 -1.15625 -0.328125 -1.734375q-0.328125 -0.578125 -1.0625 -0.578125q-0.671875 0 -1.046875 0.5625q-0.359375 0.546875 -0.421875 1.875l2.859375 0l0 -0.125zm8.670822 -3.96875q1.078125 0 1.6875 0.734375q0.625 0.71875 0.625 1.953125l0 6.78125l-2.40625 0l0 -6.453125q0 -0.640625 -0.203125 -0.90625q-0.203125 -0.28125 -0.578125 -0.28125q-0.78125 0 -1.5 1.265625l0 6.375l-2.421875 0l0 -9.1875l2.109375 0l0.171875 1.171875q0.515625 -0.71875 1.109375 -1.078125q0.59375 -0.375 1.40625 -0.375zm7.9080048 0q0.828125 0 1.5 0.28125q0.6875 0.265625 1.296875 0.8125l-1.046875 1.390625q-0.796875 -0.609375 -1.578125 -0.609375q-0.84375 0 -1.265625 0.703125q-0.421875 0.703125 -0.421875 2.34375q0 1.59375 0.421875 2.25q0.4375 0.65625 1.25 0.65625q0.421875 0 0.765625 -0.140625q0.359375 -0.140625 0.8125 -0.453125l1.0625 1.4375q-1.21875 1.078125 -2.765625 1.078125q-1.921875 0 -3.0 -1.25q-1.078125 -1.25 -1.078125 -3.546875q0 -1.5 0.484375 -2.609375q0.5 -1.125 1.40625 -1.734375q0.921875 -0.609375 2.15625 -0.609375zm10.767441 4.671875q0 0.53125 -0.0625 0.9375l-5.15625 0q0.109375 1.296875 0.578125 1.8125q0.46875 0.515625 1.296875 0.515625q0.546875 0 1.015625 -0.171875q0.484375 -0.1875 1.03125 -0.59375l0.984375 1.34375q-1.40625 1.234375 -3.203125 1.234375q-2.015625 0 -3.078125 -1.265625q-1.046875 -1.28125 -1.046875 -3.5625q0 -2.21875 1.0 -3.5625q1.015625 -1.359375 2.859375 -1.359375q1.78125 0 2.78125 1.21875q1.0 1.203125 1.0 3.453125zm-2.359375 -0.703125q0 -1.15625 -0.328125 -1.734375q-0.328125 -0.578125 -1.0625 -0.578125q-0.671875 0 -1.046875 0.5625q-0.359375 0.546875 -0.421875 1.875l2.859375 0l0 -0.125z" fill-rule="nonzero"/><path fill="#dfbbb1" d="m136.71654 396.05258l117.102356 0l0 67.212585l-117.102356 0z" fill-rule="evenodd"/><path fill="#000000" d="m178.1198 413.03326q1.1875 0 2.078125 0.390625q0.890625 0.375 1.625 1.109375l-1.15625 1.34375q-0.5625 -0.5 -1.140625 -0.734375q-0.578125 -0.234375 -1.203125 -0.234375q-0.703125 0 -1.109375 0.359375q-0.40625 0.34375 -0.40625 0.96875q0 0.421875 0.171875 0.703125q0.1875 0.28125 0.640625 0.546875q0.453125 0.25 1.3125 0.5625q1.078125 0.40625 1.765625 0.875q0.6875 0.46875 1.046875 1.1875q0.375 0.703125 0.375 1.734375q0 1.078125 -0.515625 1.921875q-0.5 0.84375 -1.46875 1.328125q-0.96875 0.484375 -2.28125 0.484375q-2.4375 0 -4.0625 -1.671875l1.25 -1.375q0.65625 0.5625 1.296875 0.859375q0.65625 0.296875 1.40625 0.296875q0.84375 0 1.3125 -0.453125q0.46875 -0.453125 0.46875 -1.234375q0 -0.6875 -0.421875 -1.109375q-0.421875 -0.421875 -1.578125 -0.84375q-1.765625 -0.65625 -2.53125 -1.484375q-0.75 -0.84375 -0.75 -2.15625q0 -0.984375 0.5 -1.75q0.5 -0.78125 1.375 -1.203125q0.890625 -0.421875 2.0 -0.421875zm9.045532 2.796875q1.890625 0 2.953125 1.265625q1.0625 1.25 1.0625 3.609375q0 2.265625 -1.078125 3.578125q-1.0625 1.296875 -2.953125 1.296875q-1.890625 0 -2.953125 -1.265625q-1.0625 -1.265625 -1.0625 -3.609375q0 -2.296875 1.0625 -3.578125q1.0625 -1.296875 2.96875 -1.296875zm0 1.8125q-0.78125 0 -1.171875 0.734375q-0.375 0.71875 -0.375 2.328125q0 1.640625 0.375 2.359375q0.375 0.703125 1.15625 0.703125q0.78125 0 1.15625 -0.71875q0.390625 -0.734375 0.390625 -2.34375q0 -1.625 -0.375 -2.34375q-0.375 -0.71875 -1.15625 -0.71875zm9.251465 -1.8125q0.828125 0 1.5 0.28125q0.6875 0.265625 1.296875 0.8125l-1.046875 1.390625q-0.796875 -0.609375 -1.578125 -0.609375q-0.84375 0 -1.265625 0.703125q-0.421875 0.703125 -0.421875 2.34375q0 1.59375 0.421875 2.25q0.4375 0.65625 1.25 0.65625q0.421875 0 0.765625 -0.140625q0.359375 -0.140625 0.8125 -0.453125l1.0625 1.4375q-1.21875 1.078125 -2.765625 1.078125q-1.921875 0 -3.0 -1.25q-1.078125 -1.25 -1.078125 -3.546875q0 -1.5 0.484375 -2.609375q0.5 -1.125 1.40625 -1.734375q0.921875 -0.609375 2.15625 -0.609375zm6.31723 0.28125l0 9.1875l-2.421875 0l0 -9.1875l2.421875 0zm-1.203125 -4.6875q0.625 0 1.03125 0.40625q0.40625 0.390625 0.40625 1.0q0 0.59375 -0.40625 1.0q-0.40625 0.40625 -1.03125 0.40625q-0.625 0 -1.03125 -0.40625q-0.40625 -0.40625 -0.40625 -1.0q0 -0.609375 0.40625 -1.0q0.40625 -0.40625 1.03125 -0.40625zm9.767502 11.453125q0 0.484375 0.125 0.71875q0.140625 0.21875 0.453125 0.34375l-0.5 1.609375q-0.765625 -0.09375 -1.25 -0.390625q-0.46875 -0.296875 -0.734375 -0.921875q-0.84375 1.34375 -2.46875 1.34375q-1.234375 0 -1.96875 -0.78125q-0.734375 -0.796875 -0.734375 -2.0625q0 -1.5 1.0 -2.296875q1.0 -0.796875 2.890625 -0.796875l0.8125 0l0 -0.515625q0 -0.84375 -0.328125 -1.171875q-0.3125 -0.34375 -1.046875 -0.34375q-0.90625 0 -2.203125 0.484375l-0.53125 -1.578125q0.75 -0.328125 1.578125 -0.5q0.828125 -0.1875 1.546875 -0.1875q1.71875 0 2.53125 0.8125q0.828125 0.796875 0.828125 2.359375l0 3.875zm-3.6875 0.96875q0.859375 0 1.3125 -1.0l0 -1.828125l-0.5625 0q-0.890625 0 -1.328125 0.375q-0.421875 0.375 -0.421875 1.140625q0 0.640625 0.25 0.984375q0.265625 0.328125 0.75 0.328125zm7.780731 1.734375q-1.046875 0 -1.65625 -0.625q-0.609375 -0.625 -0.609375 -1.734375l0 -10.765625l2.40625 -0.25l0 10.90625q0 0.546875 0.453125 0.546875q0.1875 0 0.390625 -0.078125l0.46875 1.671875q-0.59375 0.328125 -1.453125 0.328125z" fill-rule="nonzero"/><path fill="#000000" d="m161.00662 434.3145q2.28125 0 3.484375 0.96875q1.21875 0.96875 1.21875 2.875q0 2.0 -1.203125 3.015625q-1.1875 1.015625 -3.28125 1.015625l-0.984375 0l0 4.109375l-2.484375 0l0 -11.984375l3.25 0zm0.03125 6.046875q1.0625 0 1.578125 -0.5q0.53125 -0.515625 0.53125 -1.6875q0 -1.0625 -0.53125 -1.5625q-0.515625 -0.5 -1.59375 -0.5l-0.78125 0l0 4.25l0.796875 0zm10.133759 -3.484375q0.4375 0 0.8125 0.109375l-0.40625 2.328125q-0.359375 -0.109375 -0.71875 -0.109375q-0.734375 0 -1.140625 0.546875q-0.390625 0.546875 -0.609375 1.65625l0 4.890625l-2.421875 0l0 -9.1875l2.109375 0l0.1875 1.671875q0.328125 -0.921875 0.875 -1.40625q0.5625 -0.5 1.3125 -0.5zm8.52179 4.625q0 0.53125 -0.0625 0.9375l-5.15625 0q0.109375 1.296875 0.578125 1.8125q0.46875 0.515625 1.296875 0.515625q0.546875 0 1.015625 -0.171875q0.484375 -0.1875 1.03125 -0.59375l0.984375 1.34375q-1.40625 1.234375 -3.203125 1.234375q-2.015625 0 -3.078125 -1.265625q-1.046875 -1.28125 -1.046875 -3.5625q0 -2.21875 1.0 -3.5625q1.015625 -1.359375 2.859375 -1.359375q1.78125 0 2.78125 1.21875q1.0 1.203125 1.0 3.453125zm-2.359375 -0.703125q0 -1.15625 -0.328125 -1.734375q-0.328125 -0.578125 -1.0625 -0.578125q-0.671875 0 -1.046875 0.5625q-0.359375 0.546875 -0.421875 1.875l2.859375 0l0 -0.125zm7.623947 -5.796875q-0.53125 0 -0.78125 0.265625q-0.234375 0.25 -0.234375 0.84375l0 1.0l1.921875 0l-0.265625 1.71875l-1.65625 0l0 7.46875l-2.421875 0l0 -7.46875l-1.234375 0l0 -1.71875l1.234375 0l0 -0.984375q0 -1.3125 0.8125 -2.109375q0.828125 -0.8125 2.328125 -0.8125q1.140625 0 2.25 0.53125l-0.65625 1.578125q-0.640625 -0.3125 -1.296875 -0.3125zm8.8923645 6.5q0 0.53125 -0.0625 0.9375l-5.15625 0q0.109375 1.296875 0.578125 1.8125q0.46875 0.515625 1.296875 0.515625q0.546875 0 1.015625 -0.171875q0.484375 -0.1875 1.03125 -0.59375l0.984375 1.34375q-1.40625 1.234375 -3.203125 1.234375q-2.015625 0 -3.078125 -1.265625q-1.046875 -1.28125 -1.046875 -3.5625q0 -2.21875 1.0 -3.5625q1.015625 -1.359375 2.859375 -1.359375q1.78125 0 2.78125 1.21875q1.0 1.203125 1.0 3.453125zm-2.359375 -0.703125q0 -1.15625 -0.328125 -1.734375q-0.328125 -0.578125 -1.0625 -0.578125q-0.671875 0 -1.046875 0.5625q-0.359375 0.546875 -0.421875 1.875l2.859375 0l0 -0.125zm8.358322 -3.921875q0.4375 0 0.8125 0.109375l-0.40625 2.328125q-0.359375 -0.109375 -0.71875 -0.109375q-0.734375 0 -1.140625 0.546875q-0.390625 0.546875 -0.609375 1.65625l0 4.890625l-2.421875 0l0 -9.1875l2.109375 0l0.1875 1.671875q0.328125 -0.921875 0.875 -1.40625q0.5625 -0.5 1.3125 -0.5zm8.52179 4.625q0 0.53125 -0.0625 0.9375l-5.15625 0q0.109375 1.296875 0.578125 1.8125q0.46875 0.515625 1.296875 0.515625q0.546875 0 1.015625 -0.171875q0.484375 -0.1875 1.03125 -0.59375l0.984375 1.34375q-1.40625 1.234375 -3.203125 1.234375q-2.015625 0 -3.078125 -1.265625q-1.046875 -1.28125 -1.046875 -3.5625q0 -2.21875 1.0 -3.5625q1.015625 -1.359375 2.859375 -1.359375q1.78125 0 2.78125 1.21875q1.0 1.203125 1.0 3.453125zm-2.359375 -0.703125q0 -1.15625 -0.328125 -1.734375q-0.328125 -0.578125 -1.0625 -0.578125q-0.671875 0 -1.046875 0.5625q-0.359375 0.546875 -0.421875 1.875l2.859375 0l0 -0.125zm8.670822 -3.96875q1.078125 0 1.6875 0.734375q0.625 0.71875 0.625 1.953125l0 6.78125l-2.40625 0l0 -6.453125q0 -0.640625 -0.203125 -0.90625q-0.203125 -0.28125 -0.578125 -0.28125q-0.78125 0 -1.5 1.265625l0 6.375l-2.421875 0l0 -9.1875l2.109375 0l0.171875 1.171875q0.515625 -0.71875 1.109375 -1.078125q0.59375 -0.375 1.40625 -0.375zm7.9080048 0q0.828125 0 1.5 0.28125q0.6875 0.265625 1.296875 0.8125l-1.046875 1.390625q-0.796875 -0.609375 -1.578125 -0.609375q-0.84375 0 -1.265625 0.703125q-0.421875 0.703125 -0.421875 2.34375q0 1.59375 0.421875 2.25q0.4375 0.65625 1.25 0.65625q0.421875 0 0.765625 -0.140625q0.359375 -0.140625 0.8125 -0.453125l1.0625 1.4375q-1.21875 1.078125 -2.765625 1.078125q-1.921875 0 -3.0 -1.25q-1.078125 -1.25 -1.078125 -3.546875q0 -1.5 0.484375 -2.609375q0.5 -1.125 1.40625 -1.734375q0.921875 -0.609375 2.15625 -0.609375zm10.767441 4.671875q0 0.53125 -0.0625 0.9375l-5.15625 0q0.109375 1.296875 0.578125 1.8125q0.46875 0.515625 1.296875 0.515625q0.546875 0 1.015625 -0.171875q0.484375 -0.1875 1.03125 -0.59375l0.984375 1.34375q-1.40625 1.234375 -3.203125 1.234375q-2.015625 0 -3.078125 -1.265625q-1.046875 -1.28125 -1.046875 -3.5625q0 -2.21875 1.0 -3.5625q1.015625 -1.359375 2.859375 -1.359375q1.78125 0 2.78125 1.21875q1.0 1.203125 1.0 3.453125zm-2.359375 -0.703125q0 -1.15625 -0.328125 -1.734375q-0.328125 -0.578125 -1.0625 -0.578125q-0.671875 0 -1.046875 0.5625q-0.359375 0.546875 -0.421875 1.875l2.859375 0l0 -0.125z" fill-rule="nonzero"/><path fill="#efefef" d="m426.90298 27.47244l117.10239 0l0 35.307083l-117.10239 0z" fill-rule="evenodd"/><path fill="#000000" d="m450.37512 40.474316l0 8.921875l3.671875 0l-0.140625 1.15625l-4.890625 0l0 -10.078125l1.359375 0zm7.4356995 2.171875q1.46875 0 2.28125 1.046875q0.828125 1.046875 0.828125 2.984375q0 1.875 -0.84375 2.96875q-0.828125 1.09375 -2.28125 1.09375q-1.484375 0 -2.3125 -1.0625q-0.828125 -1.078125 -0.828125 -2.984375q0 -1.921875 0.828125 -2.984375q0.84375 -1.0625 2.328125 -1.0625zm0 1.0625q-0.875 0 -1.328125 0.734375q-0.453125 0.71875 -0.453125 2.25q0 3.015625 1.765625 3.015625q1.75 0 1.75 -3.03125q0 -1.53125 -0.4375 -2.25q-0.4375 -0.71875 -1.296875 -0.71875zm7.709198 -1.0625q0.609375 0 1.125 0.21875q0.515625 0.203125 0.984375 0.625l-0.59375 0.796875q-0.34375 -0.28125 -0.703125 -0.421875q-0.34375 -0.140625 -0.765625 -0.140625q-0.859375 0 -1.34375 0.734375q-0.46875 0.734375 -0.46875 2.28125q0 2.90625 1.8125 2.90625q0.421875 0 0.75 -0.140625q0.34375 -0.140625 0.71875 -0.421875l0.625 0.8125q-0.9375 0.84375 -2.125 0.84375q-1.484375 0 -2.328125 -1.015625q-0.84375 -1.03125 -0.84375 -2.96875q0 -1.265625 0.390625 -2.1875q0.390625 -0.921875 1.09375 -1.421875q0.71875 -0.5 1.671875 -0.5zm8.251251 6.140625q0 0.46875 0.125 0.703125q0.140625 0.234375 0.40625 0.34375l-0.265625 0.890625q-0.578125 -0.078125 -0.90625 -0.34375q-0.3125 -0.265625 -0.453125 -0.8125q-0.75 1.171875 -2.09375 1.171875q-1.03125 0 -1.625 -0.625q-0.59375 -0.640625 -0.59375 -1.71875q0 -1.234375 0.796875 -1.875q0.8125 -0.640625 2.296875 -0.640625l1.0 0l0 -0.65625q0 -0.8125 -0.328125 -1.171875q-0.328125 -0.359375 -1.078125 -0.359375q-0.796875 0 -1.875 0.40625l-0.328125 -0.921875q1.296875 -0.53125 2.40625 -0.53125q2.515625 0 2.515625 2.515625l0 3.625zm-2.875 0.953125q1.015625 0 1.5625 -1.203125l0 -1.8125l-0.84375 0q-1.90625 0 -1.90625 1.59375q0 0.703125 0.296875 1.0625q0.3125 0.359375 0.890625 0.359375zm6.550537 1.0q-0.703125 0 -1.125 -0.421875q-0.40625 -0.421875 -0.40625 -1.1875l0 -9.40625l1.328125 -0.15625l0 9.515625q0 0.578125 0.46875 0.578125q0.1875 0 0.421875 -0.09375l0.296875 0.921875q-0.46875 0.25 -0.984375 0.25zm7.282257 -10.265625l0 10.078125l-1.359375 0l0 -10.078125l1.359375 0zm9.54306 2.171875q0.828125 0 1.328125 0.625q0.5 0.625 0.5 1.671875l0 5.609375l-1.296875 0l0 -5.46875q0 -1.40625 -0.921875 -1.40625q-0.875 0 -1.609375 1.34375l0 5.53125l-1.296875 0l0 -5.46875q0 -1.40625 -0.90625 -1.40625q-0.90625 0 -1.625 1.34375l0 5.53125l-1.296875 0l0 -7.703125l1.140625 0l0.109375 1.125q0.84375 -1.328125 2.046875 -1.328125q0.625 0 1.0625 0.375q0.453125 0.359375 0.640625 1.03125q0.890625 -1.40625 2.125 -1.40625zm7.4738464 0q1.265625 0 1.890625 1.046875q0.640625 1.046875 0.640625 2.96875q0 1.875 -0.71875 2.984375q-0.703125 1.09375 -1.96875 1.09375q-1.15625 0 -1.859375 -0.921875l0 3.671875l-1.3125 0.15625l0 -10.796875l1.15625 0l0.078125 1.03125q0.78125 -1.234375 2.09375 -1.234375zm-0.46875 7.046875q1.625 0 1.625 -3.015625q0 -1.5625 -0.375 -2.265625q-0.375 -0.71875 -1.140625 -0.71875q-0.5 0 -0.90625 0.3125q-0.390625 0.296875 -0.75 0.828125l0 3.90625q0.609375 0.953125 1.546875 0.953125zm9.618256 -0.90625q0 0.46875 0.125 0.703125q0.140625 0.234375 0.40625 0.34375l-0.265625 0.890625q-0.578125 -0.078125 -0.90625 -0.34375q-0.3125 -0.265625 -0.453125 -0.8125q-0.75 1.171875 -2.09375 1.171875q-1.03125 0 -1.625 -0.625q-0.59375 -0.640625 -0.59375 -1.71875q0 -1.234375 0.796875 -1.875q0.8125 -0.640625 2.296875 -0.640625l1.0 0l0 -0.65625q0 -0.8125 -0.328125 -1.171875q-0.328125 -0.359375 -1.078125 -0.359375q-0.796875 0 -1.875 0.40625l-0.328125 -0.921875q1.296875 -0.53125 2.40625 -0.53125q2.515625 0 2.515625 2.515625l0 3.625zm-2.875 0.953125q1.015625 0 1.5625 -1.203125l0 -1.8125l-0.84375 0q-1.90625 0 -1.90625 1.59375q0 0.703125 0.296875 1.0625q0.3125 0.359375 0.890625 0.359375zm7.93161 -7.09375q0.609375 0 1.125 0.21875q0.515625 0.203125 0.984375 0.625l-0.59375 0.796875q-0.34375 -0.28125 -0.703125 -0.421875q-0.34375 -0.140625 -0.765625 -0.140625q-0.859375 0 -1.34375 0.734375q-0.46875 0.734375 -0.46875 2.28125q0 2.90625 1.8125 2.90625q0.421875 0 0.75 -0.140625q0.34375 -0.140625 0.71875 -0.421875l0.625 0.8125q-0.9375 0.84375 -2.125 0.84375q-1.484375 0 -2.328125 -1.015625q-0.84375 -1.03125 -0.84375 -2.96875q0 -1.265625 0.390625 -2.1875q0.390625 -0.921875 1.09375 -1.421875q0.71875 -0.5 1.671875 -0.5zm7.241638 7.5625q-0.734375 0.53125 -1.640625 0.53125q-0.9375 0 -1.4375 -0.53125q-0.5 -0.546875 -0.5 -1.53125l0 -4.84375l-1.109375 0l0 -0.984375l1.109375 0l0 -1.78125l1.3125 -0.15625l0 1.9375l1.703125 0l-0.140625 0.984375l-1.5625 0l0 4.828125q0 1.0 0.84375 1.0q0.25 0 0.453125 -0.078125q0.21875 -0.078125 0.484375 -0.21875l0.484375 0.84375z" fill-rule="nonzero"/><path fill="#000000" fill-opacity="0.0" d="m387.83203 73.509186c63.338562 0 95.00787 42.196854 126.677185 84.39371c31.66925 42.19684 63.338562 84.39369 126.677124 84.39369" fill-rule="evenodd"/><path stroke="#000000" stroke-width="2.0" stroke-linejoin="round" stroke-linecap="butt" d="m387.83203 73.509186c63.338562 0 95.00787 42.196854 126.677185 84.39371c31.66925 42.19684 63.338562 84.39369 126.677124 84.39369" fill-rule="evenodd"/><path fill="#008dd5" d="m264.021 314.9982l123.811035 0l0 35.3071l-123.811035 0z" fill-rule="evenodd"/><path fill="#000000" d="m301.66656 328.3426l-0.171875 1.15625l-3.8125 0l0 3.640625l3.3125 0l0 1.140625l-3.3125 0l0 3.90625l4.03125 0l0 1.171875l-5.515625 0l0 -11.015625l5.46875 0zm4.574646 2.390625q0.671875 0 1.234375 0.234375q0.5625 0.21875 1.078125 0.671875l-0.640625 0.875q-0.390625 -0.3125 -0.78125 -0.453125q-0.375 -0.15625 -0.828125 -0.15625q-0.9375 0 -1.46875 0.796875q-0.515625 0.796875 -0.515625 2.5q0 3.171875 1.984375 3.171875q0.453125 0 0.8125 -0.15625q0.375 -0.15625 0.796875 -0.453125l0.671875 0.875q-1.03125 0.921875 -2.328125 0.921875q-1.609375 0 -2.53125 -1.109375q-0.921875 -1.125 -0.921875 -3.234375q0 -1.375 0.421875 -2.375q0.421875 -1.015625 1.203125 -1.5625q0.78125 -0.546875 1.8125 -0.546875zm6.5440063 0q1.625 0 2.515625 1.140625q0.890625 1.125 0.890625 3.265625q0 2.046875 -0.90625 3.234375q-0.90625 1.1875 -2.515625 1.1875q-1.609375 0 -2.515625 -1.15625q-0.90625 -1.171875 -0.90625 -3.25q0 -2.09375 0.90625 -3.25q0.921875 -1.171875 2.53125 -1.171875zm0 1.15625q-0.9375 0 -1.4375 0.796875q-0.5 0.78125 -0.5 2.46875q0 3.28125 1.921875 3.28125q1.921875 0 1.921875 -3.296875q0 -1.6875 -0.484375 -2.46875q-0.46875 -0.78125 -1.421875 -0.78125zm9.259766 -1.15625q1.0 0 1.5625 0.671875q0.578125 0.65625 0.578125 1.828125l0 6.125l-1.4375 0l0 -5.953125q0 -0.8125 -0.28125 -1.171875q-0.265625 -0.359375 -0.828125 -0.359375q-1.0625 0 -1.921875 1.5l0 5.984375l-1.4375 0l0 -8.421875l1.25 0l0.109375 1.25q0.96875 -1.453125 2.40625 -1.453125zm7.588257 0q1.625 0 2.515625 1.140625q0.890625 1.125 0.890625 3.265625q0 2.046875 -0.90625 3.234375q-0.90625 1.1875 -2.515625 1.1875q-1.609375 0 -2.515625 -1.15625q-0.90625 -1.171875 -0.90625 -3.25q0 -2.09375 0.90625 -3.25q0.921875 -1.171875 2.53125 -1.171875zm0 1.15625q-0.9375 0 -1.4375 0.796875q-0.5 0.78125 -0.5 2.46875q0 3.28125 1.921875 3.28125q1.921875 0 1.921875 -3.296875q0 -1.6875 -0.484375 -2.46875q-0.46875 -0.78125 -1.421875 -0.78125zm13.275391 -1.15625q0.90625 0 1.453125 0.6875q0.546875 0.671875 0.546875 1.8125l0 6.125l-1.4375 0l0 -5.96875q0 -1.53125 -0.984375 -1.53125q-0.953125 0 -1.765625 1.46875l0 6.03125l-1.421875 0l0 -5.96875q0 -1.53125 -0.984375 -1.53125q-0.984375 0 -1.765625 1.46875l0 6.03125l-1.421875 0l0 -8.421875l1.25 0l0.109375 1.234375q0.921875 -1.4375 2.234375 -1.4375q0.6875 0 1.171875 0.40625q0.484375 0.390625 0.6875 1.125q0.984375 -1.53125 2.328125 -1.53125zm5.9602966 0.203125l0 8.421875l-1.4375 0l0 -8.421875l1.4375 0zm-0.71875 -3.96875q0.40625 0 0.671875 0.28125q0.265625 0.265625 0.265625 0.671875q0 0.390625 -0.25 0.65625q-0.25 0.265625 -0.6875 0.265625q-0.421875 0 -0.6875 -0.265625q-0.265625 -0.265625 -0.265625 -0.65625q0 -0.40625 0.265625 -0.671875q0.265625 -0.28125 0.6875 -0.28125zm6.235138 3.765625q0.671875 0 1.234375 0.234375q0.5625 0.21875 1.078125 0.671875l-0.640625 0.875q-0.390625 -0.3125 -0.78125 -0.453125q-0.375 -0.15625 -0.828125 -0.15625q-0.9375 0 -1.46875 0.796875q-0.515625 0.796875 -0.515625 2.5q0 3.171875 1.984375 3.171875q0.453125 0 0.8125 -0.15625q0.375 -0.15625 0.796875 -0.453125l0.671875 0.875q-1.03125 0.921875 -2.328125 0.921875q-1.609375 0 -2.53125 -1.109375q-0.921875 -1.125 -0.921875 -3.234375q0 -1.375 0.421875 -2.375q0.421875 -1.015625 1.203125 -1.5625q0.78125 -0.546875 1.8125 -0.546875z" fill-rule="nonzero"/><path fill="#000000" fill-opacity="0.0" d="m387.83203 332.65173c63.338562 0 95.00787 -22.590546 126.677185 -45.18109c31.66925 -22.590546 63.338562 -45.181107 126.677124 -45.181107" fill-rule="evenodd"/><path stroke="#999999" stroke-width="2.0" stroke-linejoin="round" stroke-linecap="butt" stroke-dasharray="8.0,6.0" d="m387.83203 332.65173c63.338562 0 95.00787 -22.590546 126.677185 -45.18109c31.66925 -22.590546 63.338562 -45.181107 126.677124 -45.181107" fill-rule="evenodd"/><path fill="#000000" fill-opacity="0.0" d="m485.45416 62.779526l-33.29132 23.842522" fill-rule="evenodd"/><path stroke="#000000" stroke-width="2.0" stroke-linejoin="round" stroke-linecap="butt" d="m485.45416 62.779526l-23.535278 16.855446" fill-rule="evenodd"/><path fill="#000000" stroke="#000000" stroke-width="2.0" stroke-linecap="butt" d="m459.99542 76.949234l-5.455536 7.970413l9.30246 -2.598938z" fill-rule="evenodd"/><path fill="#000000" fill-opacity="0.0" d="m485.45416 62.779526l-28.59842 62.960632" fill-rule="evenodd"/><path stroke="#b7b7b7" stroke-width="2.0" stroke-linejoin="round" stroke-linecap="butt" stroke-dasharray="8.0,6.0" d="m485.45416 62.779526l-23.635681 52.03492" fill-rule="evenodd"/><path fill="#b7b7b7" stroke="#b7b7b7" stroke-width="2.0" stroke-linecap="butt" d="m458.81076 113.44826l-0.7458496 9.629845l6.7612915 -6.897461z" fill-rule="evenodd"/><path fill="#000000" fill-opacity="0.0" d="m485.45416 62.779526l-1.9842529 109.921265" fill-rule="evenodd"/><path stroke="#000000" stroke-width="2.0" stroke-linejoin="round" stroke-linecap="butt" d="m485.45416 62.779526l-1.7677002 97.92322" fill-rule="evenodd"/><path fill="#000000" stroke="#000000" stroke-width="2.0" stroke-linecap="butt" d="m480.38354 160.64311l3.1391296 9.134354l3.4667358 -9.015106z" fill-rule="evenodd"/><path fill="#efefef" d="m503.88977 72.08662l117.102356 0l0 35.307083l-117.102356 0z" fill-rule="evenodd"/><path fill="#000000" d="m529.4865 85.088486l-0.171875 1.046875l-3.484375 0l0 3.328125l3.03125 0l0 1.0625l-3.03125 0l0 3.578125l3.6875 0l0 1.0625l-5.046875 0l0 -10.078125l5.015625 0zm4.0180054 0.140625q-0.53125 0 -0.796875 0.265625q-0.25 0.265625 -0.25 0.8125l0 1.15625l1.71875 0l-0.140625 0.984375l-1.578125 0l0 6.71875l-1.328125 0l0 -6.71875l-1.140625 0l0 -0.984375l1.140625 0l0 -1.140625q0 -0.96875 0.59375 -1.546875q0.59375 -0.59375 1.65625 -0.59375q0.875 0 1.734375 0.4375l-0.40625 0.90625q-0.59375 -0.296875 -1.203125 -0.296875zm4.4848022 0q-0.53125 0 -0.796875 0.265625q-0.25 0.265625 -0.25 0.8125l0 1.15625l1.71875 0l-0.140625 0.984375l-1.578125 0l0 6.71875l-1.328125 0l0 -6.71875l-1.140625 0l0 -0.984375l1.140625 0l0 -1.140625q0 -0.96875 0.59375 -1.546875q0.59375 -0.59375 1.65625 -0.59375q0.875 0 1.734375 0.4375l-0.40625 0.90625q-0.59375 -0.296875 -1.203125 -0.296875zm7.228821 5.84375q0 0.3125 -0.03125 0.6875l-4.484375 0q0.0625 1.359375 0.546875 1.953125q0.484375 0.59375 1.3125 0.59375q0.53125 0 0.953125 -0.15625q0.421875 -0.171875 0.875 -0.53125l0.578125 0.765625q-1.078125 0.96875 -2.453125 0.96875q-1.515625 0 -2.34375 -1.046875q-0.828125 -1.046875 -0.828125 -2.9375q0 -1.890625 0.78125 -3.0q0.796875 -1.109375 2.203125 -1.109375q1.390625 0 2.140625 1.0q0.75 0.984375 0.75 2.8125zm-1.28125 -0.390625q0 -2.421875 -1.59375 -2.421875q-0.734375 0 -1.15625 0.609375q-0.421875 0.609375 -0.484375 1.96875l3.234375 0l0 -0.15625zm5.8026733 -3.421875q0.609375 0 1.125 0.21875q0.515625 0.203125 0.984375 0.625l-0.59375 0.796875q-0.34375 -0.28125 -0.703125 -0.421875q-0.34375 -0.140625 -0.765625 -0.140625q-0.859375 0 -1.34375 0.734375q-0.46875 0.734375 -0.46875 2.28125q0 2.90625 1.8125 2.90625q0.421875 0 0.75 -0.140625q0.34375 -0.140625 0.71875 -0.421875l0.625 0.8125q-0.9375 0.84375 -2.125 0.84375q-1.484375 0 -2.328125 -1.015625q-0.84375 -1.03125 -0.84375 -2.96875q0 -1.265625 0.390625 -2.1875q0.390625 -0.921875 1.09375 -1.421875q0.71875 -0.5 1.671875 -0.5zm7.241699 7.5625q-0.734375 0.53125 -1.640625 0.53125q-0.9375 0 -1.4375 -0.53125q-0.5 -0.546875 -0.5 -1.53125l0 -4.84375l-1.109375 0l0 -0.984375l1.109375 0l0 -1.78125l1.3125 -0.15625l0 1.9375l1.703125 0l-0.140625 0.984375l-1.5625 0l0 4.828125q0 1.0 0.84375 1.0q0.25 0 0.453125 -0.078125q0.21875 -0.078125 0.484375 -0.21875l0.484375 0.84375zm2.4488525 -7.359375l0 7.703125l-1.3125 0l0 -7.703125l1.3125 0zm-0.640625 -3.640625q0.375 0 0.609375 0.25q0.25 0.25 0.25 0.609375q0 0.375 -0.234375 0.625q-0.234375 0.234375 -0.625 0.234375q-0.390625 0 -0.640625 -0.234375q-0.234375 -0.25 -0.234375 -0.625q0 -0.359375 0.234375 -0.609375q0.25 -0.25 0.640625 -0.25zm8.224609 3.640625l-2.296875 7.703125l-1.59375 0l-2.375 -7.703125l1.390625 0l1.78125 6.59375l1.78125 -6.59375l1.3125 0zm6.666504 3.609375q0 0.3125 -0.03125 0.6875l-4.484375 0q0.0625 1.359375 0.546875 1.953125q0.484375 0.59375 1.3125 0.59375q0.53125 0 0.953125 -0.15625q0.421875 -0.171875 0.875 -0.53125l0.578125 0.765625q-1.078125 0.96875 -2.453125 0.96875q-1.515625 0 -2.34375 -1.046875q-0.828125 -1.046875 -0.828125 -2.9375q0 -1.890625 0.78125 -3.0q0.796875 -1.109375 2.203125 -1.109375q1.390625 0 2.140625 1.0q0.75 0.984375 0.75 2.8125zm-1.28125 -0.390625q0 -2.421875 -1.59375 -2.421875q-0.734375 0 -1.15625 0.609375q-0.421875 0.609375 -0.484375 1.96875l3.234375 0l0 -0.15625zm6.5527344 -3.421875q0.9375 0 1.453125 0.609375q0.515625 0.609375 0.515625 1.6875l0 5.609375l-1.3125 0l0 -5.453125q0 -0.75 -0.25 -1.078125q-0.25 -0.328125 -0.765625 -0.328125q-0.96875 0 -1.765625 1.375l0 5.484375l-1.3125 0l0 -7.703125l1.140625 0l0.109375 1.140625q0.890625 -1.34375 2.1875 -1.34375zm9.692627 3.8125q0 0.3125 -0.03125 0.6875l-4.484375 0q0.0625 1.359375 0.546875 1.953125q0.484375 0.59375 1.3125 0.59375q0.53125 0 0.953125 -0.15625q0.421875 -0.171875 0.875 -0.53125l0.578125 0.765625q-1.078125 0.96875 -2.453125 0.96875q-1.515625 0 -2.34375 -1.046875q-0.828125 -1.046875 -0.828125 -2.9375q0 -1.890625 0.78125 -3.0q0.796875 -1.109375 2.203125 -1.109375q1.390625 0 2.140625 1.0q0.75 0.984375 0.75 2.8125zm-1.28125 -0.390625q0 -2.421875 -1.59375 -2.421875q-0.734375 0 -1.15625 0.609375q-0.421875 0.609375 -0.484375 1.96875l3.234375 0l0 -0.15625zm5.1152344 -3.421875q1.328125 0 2.375 0.890625l-0.5625 0.765625q-0.46875 -0.3125 -0.890625 -0.46875q-0.40625 -0.171875 -0.859375 -0.171875q-0.59375 0 -0.9375 0.296875q-0.34375 0.28125 -0.34375 0.78125q0 0.484375 0.328125 0.765625q0.328125 0.265625 1.25 0.5625q1.15625 0.359375 1.6875 0.890625q0.53125 0.53125 0.53125 1.453125q0 1.078125 -0.796875 1.703125q-0.796875 0.625 -1.984375 0.625q-1.5625 0 -2.640625 -1.03125l0.671875 -0.734375q0.921875 0.75 1.9375 0.75q0.65625 0 1.046875 -0.328125q0.390625 -0.328125 0.390625 -0.890625q0 -0.421875 -0.140625 -0.65625q-0.125 -0.25 -0.484375 -0.453125q-0.359375 -0.203125 -1.046875 -0.421875q-1.109375 -0.359375 -1.59375 -0.875q-0.484375 -0.515625 -0.484375 -1.3125q0 -0.609375 0.328125 -1.09375q0.328125 -0.484375 0.890625 -0.765625q0.578125 -0.28125 1.328125 -0.28125zm6.1115723 0q1.328125 0 2.375 0.890625l-0.5625 0.765625q-0.46875 -0.3125 -0.890625 -0.46875q-0.40625 -0.171875 -0.859375 -0.171875q-0.59375 0 -0.9375 0.296875q-0.34375 0.28125 -0.34375 0.78125q0 0.484375 0.328125 0.765625q0.328125 0.265625 1.25 0.5625q1.15625 0.359375 1.6875 0.890625q0.53125 0.53125 0.53125 1.453125q0 1.078125 -0.796875 1.703125q-0.796875 0.625 -1.984375 0.625q-1.5625 0 -2.640625 -1.03125l0.671875 -0.734375q0.921875 0.75 1.9375 0.75q0.65625 0 1.046875 -0.328125q0.390625 -0.328125 0.390625 -0.890625q0 -0.421875 -0.140625 -0.65625q-0.125 -0.25 -0.484375 -0.453125q-0.359375 -0.203125 -1.046875 -0.421875q-1.109375 -0.359375 -1.59375 -0.875q-0.484375 -0.515625 -0.484375 -1.3125q0 -0.609375 0.328125 -1.09375q0.328125 -0.484375 0.890625 -0.765625q0.578125 -0.28125 1.328125 -0.28125z" fill-rule="nonzero"/><path fill="#000000" fill-opacity="0.0" d="m562.4409 107.3937l46.26776 134.17322" fill-rule="evenodd"/><path stroke="#b7b7b7" stroke-width="2.0" stroke-linejoin="round" stroke-linecap="butt" stroke-dasharray="8.0,6.0" d="m562.4409 107.3937l42.355774 122.82879" fill-rule="evenodd"/><path fill="#b7b7b7" stroke="#b7b7b7" stroke-width="2.0" stroke-linecap="butt" d="m601.6737 231.29941l6.081787 7.5034485l0.16418457 -9.657303z" fill-rule="evenodd"/><path fill="#dfbbb1" d="m264.021 358.18863l123.811035 0l0 35.3071l-123.811035 0z" fill-rule="evenodd"/><path fill="#000000" d="m287.19116 371.32986q0.96875 0 1.703125 0.328125q0.734375 0.3125 1.375 0.953125l-0.765625 0.84375q-0.53125 -0.46875 -1.078125 -0.703125q-0.53125 -0.234375 -1.15625 -0.234375q-0.796875 0 -1.296875 0.4375q-0.484375 0.4375 -0.484375 1.15625q0 0.484375 0.1875 0.828125q0.203125 0.34375 0.65625 0.625q0.46875 0.28125 1.328125 0.5625q0.96875 0.359375 1.59375 0.765625q0.625 0.390625 0.953125 1.015625q0.34375 0.625 0.34375 1.5625q0 0.953125 -0.4375 1.703125q-0.421875 0.734375 -1.234375 1.15625q-0.8125 0.421875 -1.890625 0.421875q-2.0 0 -3.40625 -1.4375l0.78125 -0.84375q0.59375 0.53125 1.203125 0.8125q0.609375 0.28125 1.375 0.28125q0.9375 0 1.5 -0.53125q0.578125 -0.546875 0.578125 -1.5q0 -0.8125 -0.46875 -1.28125q-0.453125 -0.484375 -1.671875 -0.90625q-1.546875 -0.546875 -2.234375 -1.265625q-0.671875 -0.71875 -0.671875 -1.875q0 -0.8125 0.40625 -1.46875q0.40625 -0.671875 1.140625 -1.03125q0.75 -0.375 1.671875 -0.375zm8.186035 2.59375q1.625 0 2.515625 1.140625q0.890625 1.125 0.890625 3.265625q0 2.046875 -0.90625 3.234375q-0.90625 1.1875 -2.515625 1.1875q-1.609375 0 -2.515625 -1.15625q-0.90625 -1.171875 -0.90625 -3.25q0 -2.09375 0.90625 -3.25q0.921875 -1.171875 2.53125 -1.171875zm0 1.15625q-0.9375 0 -1.4375 0.796875q-0.5 0.78125 -0.5 2.46875q0 3.28125 1.921875 3.28125q1.921875 0 1.921875 -3.296875q0 -1.6875 -0.484375 -2.46875q-0.46875 -0.78125 -1.421875 -0.78125zm8.416016 -1.15625q0.671875 0 1.234375 0.234375q0.5625 0.21875 1.078125 0.671875l-0.640625 0.875q-0.390625 -0.3125 -0.78125 -0.453125q-0.375 -0.15625 -0.828125 -0.15625q-0.9375 0 -1.46875 0.796875q-0.515625 0.796875 -0.515625 2.5q0 3.171875 1.984375 3.171875q0.453125 0 0.8125 -0.15625q0.375 -0.15625 0.796875 -0.453125l0.671875 0.875q-1.03125 0.921875 -2.328125 0.921875q-1.609375 0 -2.53125 -1.109375q-0.921875 -1.125 -0.921875 -3.234375q0 -1.375 0.421875 -2.375q0.421875 -1.015625 1.203125 -1.5625q0.78125 -0.546875 1.8125 -0.546875zm5.363617 0.203125l0 8.421875l-1.4375 0l0 -8.421875l1.4375 0zm-0.71875 -3.96875q0.40625 0 0.671875 0.28125q0.265625 0.265625 0.265625 0.671875q0 0.390625 -0.25 0.65625q-0.25 0.265625 -0.6875 0.265625q-0.421875 0 -0.6875 -0.265625q-0.265625 -0.265625 -0.265625 -0.65625q0 -0.40625 0.265625 -0.671875q0.265625 -0.28125 0.6875 -0.28125zm8.563263 10.46875q0 0.515625 0.140625 0.765625q0.140625 0.25 0.453125 0.375l-0.3125 0.96875q-0.625 -0.09375 -0.984375 -0.375q-0.34375 -0.296875 -0.484375 -0.890625q-0.8125 1.28125 -2.28125 1.28125q-1.125 0 -1.78125 -0.6875q-0.65625 -0.703125 -0.65625 -1.875q0 -1.34375 0.875 -2.046875q0.890625 -0.703125 2.515625 -0.703125l1.09375 0l0 -0.71875q0 -0.875 -0.359375 -1.265625q-0.359375 -0.390625 -1.1875 -0.390625q-0.875 0 -2.046875 0.4375l-0.34375 -1.0q1.40625 -0.578125 2.625 -0.578125q2.734375 0 2.734375 2.734375l0 3.96875zm-3.140625 1.046875q1.125 0 1.71875 -1.3125l0 -1.984375l-0.9375 0q-2.078125 0 -2.078125 1.734375q0 0.75 0.328125 1.15625q0.34375 0.40625 0.96875 0.40625zm7.148773 1.078125q-0.765625 0 -1.21875 -0.453125q-0.4375 -0.46875 -0.4375 -1.296875l0 -10.28125l1.4375 -0.15625l0 10.390625q0 0.625 0.515625 0.625q0.203125 0 0.453125 -0.109375l0.328125 1.015625q-0.515625 0.265625 -1.078125 0.265625zm13.124634 -11.21875l-3.046875 11.015625l-1.765625 0l-3.09375 -11.015625l1.53125 0l2.46875 9.578125l2.4375 -9.578125l1.46875 0zm6.0352783 9.09375q0 0.515625 0.140625 0.765625q0.140625 0.25 0.453125 0.375l-0.3125 0.96875q-0.625 -0.09375 -0.984375 -0.375q-0.34375 -0.296875 -0.484375 -0.890625q-0.8125 1.28125 -2.28125 1.28125q-1.125 0 -1.78125 -0.6875q-0.65625 -0.703125 -0.65625 -1.875q0 -1.34375 0.875 -2.046875q0.890625 -0.703125 2.515625 -0.703125l1.09375 0l0 -0.71875q0 -0.875 -0.359375 -1.265625q-0.359375 -0.390625 -1.1875 -0.390625q-0.875 0 -2.046875 0.4375l-0.34375 -1.0q1.40625 -0.578125 2.625 -0.578125q2.734375 0 2.734375 2.734375l0 3.96875zm-3.140625 1.046875q1.125 0 1.71875 -1.3125l0 -1.984375l-0.9375 0q-2.078125 0 -2.078125 1.734375q0 0.75 0.328125 1.15625q0.34375 0.40625 0.96875 0.40625zm7.1487427 1.078125q-0.765625 0 -1.21875 -0.453125q-0.4375 -0.46875 -0.4375 -1.296875l0 -10.28125l1.4375 -0.15625l0 10.390625q0 0.625 0.515625 0.625q0.203125 0 0.453125 -0.109375l0.328125 1.015625q-0.515625 0.265625 -1.078125 0.265625zm8.427155 -0.203125l-1.25 0l-0.078125 -1.265625q-0.890625 1.46875 -2.359375 1.46875q-1.0 0 -1.578125 -0.65625q-0.578125 -0.65625 -0.578125 -1.765625l0 -6.203125l1.4375 0l0 6.0625q0 0.75 0.28125 1.09375q0.28125 0.34375 0.84375 0.34375q1.0625 0 1.828125 -1.421875l0 -6.078125l1.453125 0l0 8.421875zm8.493011 -4.46875q0 0.34375 -0.03125 0.75l-4.90625 0q0.078125 1.484375 0.59375 2.140625q0.53125 0.640625 1.4375 0.640625q0.578125 0 1.03125 -0.171875q0.46875 -0.1875 0.953125 -0.59375l0.640625 0.859375q-1.171875 1.046875 -2.6875 1.046875q-1.640625 0 -2.546875 -1.140625q-0.90625 -1.140625 -0.90625 -3.203125q0 -2.0625 0.859375 -3.265625q0.875 -1.21875 2.40625 -1.21875q1.515625 0 2.328125 1.078125q0.828125 1.078125 0.828125 3.078125zm-1.390625 -0.421875q0 -2.640625 -1.75 -2.640625q-0.796875 0 -1.265625 0.671875q-0.453125 0.65625 -0.53125 2.140625l3.546875 0l0 -0.171875zm5.560272 -3.734375q1.453125 0 2.59375 0.96875l-0.609375 0.84375q-0.515625 -0.359375 -0.96875 -0.53125q-0.4375 -0.171875 -0.9375 -0.171875q-0.65625 0 -1.03125 0.3125q-0.375 0.3125 -0.375 0.84375q0 0.53125 0.359375 0.84375q0.359375 0.296875 1.375 0.625q1.265625 0.390625 1.828125 0.96875q0.578125 0.578125 0.578125 1.578125q0 1.1875 -0.859375 1.875q-0.859375 0.671875 -2.15625 0.671875q-1.71875 0 -2.890625 -1.125l0.734375 -0.8125q1.0 0.828125 2.125 0.828125q0.703125 0 1.125 -0.34375q0.4375 -0.359375 0.4375 -0.984375q0 -0.453125 -0.15625 -0.71875q-0.140625 -0.28125 -0.53125 -0.484375q-0.390625 -0.21875 -1.15625 -0.46875q-1.1875 -0.390625 -1.71875 -0.953125q-0.53125 -0.5625 -0.53125 -1.421875q0 -0.671875 0.34375 -1.203125q0.359375 -0.53125 0.984375 -0.828125q0.625 -0.3125 1.4375 -0.3125z" fill-rule="nonzero"/><path fill="#000000" fill-opacity="0.0" d="m387.83203 375.84216c63.338562 0 95.00787 -33.385803 126.677185 -66.77164c31.66925 -33.385834 63.338562 -66.77167 126.677124 -66.77167" fill-rule="evenodd"/><path stroke="#000000" stroke-width="2.0" stroke-linejoin="round" stroke-linecap="butt" d="m387.83203 375.84216c63.338562 0 95.00787 -33.385803 126.677185 -66.77164c31.66925 -33.385834 63.338562 -66.77167 126.677124 -66.77167" fill-rule="evenodd"/><path fill="#dfbbb1" d="m264.021 401.37906l123.811035 0l0 35.307068l-123.811035 0z" fill-rule="evenodd"/><path fill="#000000" d="m287.31418 414.72342l0 9.75l4.015625 0l-0.15625 1.265625l-5.34375 0l0 -11.015625l1.484375 0zm8.111023 2.390625q1.625 0 2.515625 1.140625q0.890625 1.125 0.890625 3.265625q0 2.046875 -0.90625 3.234375q-0.90625 1.1875 -2.515625 1.1875q-1.609375 0 -2.515625 -1.15625q-0.90625 -1.171875 -0.90625 -3.25q0 -2.09375 0.90625 -3.25q0.921875 -1.171875 2.53125 -1.171875zm0 1.15625q-0.9375 0 -1.4375 0.796875q-0.5 0.78125 -0.5 2.46875q0 3.28125 1.921875 3.28125q1.921875 0 1.921875 -3.296875q0 -1.6875 -0.484375 -2.46875q-0.46875 -0.78125 -1.421875 -0.78125zm8.416016 -1.15625q0.671875 0 1.234375 0.234375q0.5625 0.21875 1.078125 0.671875l-0.640625 0.875q-0.390625 -0.3125 -0.78125 -0.453125q-0.375 -0.15625 -0.828125 -0.15625q-0.9375 0 -1.46875 0.796875q-0.515625 0.796875 -0.515625 2.5q0 3.171875 1.984375 3.171875q0.453125 0 0.8125 -0.15625q0.375 -0.15625 0.796875 -0.453125l0.671875 0.875q-1.03125 0.921875 -2.328125 0.921875q-1.609375 0 -2.53125 -1.109375q-0.921875 -1.125 -0.921875 -3.234375q0 -1.375 0.421875 -2.375q0.421875 -1.015625 1.203125 -1.5625q0.78125 -0.546875 1.8125 -0.546875zm9.016113 6.703125q0 0.515625 0.140625 0.765625q0.140625 0.25 0.453125 0.375l-0.3125 0.96875q-0.625 -0.09375 -0.984375 -0.375q-0.34375 -0.296875 -0.484375 -0.890625q-0.8125 1.28125 -2.28125 1.28125q-1.125 0 -1.78125 -0.6875q-0.65625 -0.703125 -0.65625 -1.875q0 -1.34375 0.875 -2.046875q0.890625 -0.703125 2.515625 -0.703125l1.09375 0l0 -0.71875q0 -0.875 -0.359375 -1.265625q-0.359375 -0.390625 -1.1875 -0.390625q-0.875 0 -2.046875 0.4375l-0.34375 -1.0q1.40625 -0.578125 2.625 -0.578125q2.734375 0 2.734375 2.734375l0 3.96875zm-3.140625 1.046875q1.125 0 1.71875 -1.3125l0 -1.984375l-0.9375 0q-2.078125 0 -2.078125 1.734375q0 0.75 0.328125 1.15625q0.34375 0.40625 0.96875 0.40625zm7.148773 1.078125q-0.765625 0 -1.21875 -0.453125q-0.4375 -0.46875 -0.4375 -1.296875l0 -10.28125l1.4375 -0.15625l0 10.390625q0 0.625 0.515625 0.625q0.203125 0 0.453125 -0.109375l0.328125 1.015625q-0.515625 0.265625 -1.078125 0.265625zm6.177124 -13.109375l1.21875 0.265625l-3.390625 14.28125l-1.21875 -0.265625l3.390625 -14.28125zm7.527405 1.6875q0.921875 0 1.609375 0.296875q0.703125 0.296875 1.375 0.90625l-0.796875 0.828125q-0.546875 -0.4375 -1.046875 -0.640625q-0.484375 -0.203125 -1.109375 -0.203125q-1.25 0 -2.046875 1.0625q-0.796875 1.0625 -0.796875 3.453125q0 2.421875 0.671875 3.484375q0.671875 1.046875 2.015625 1.046875q0.984375 0 1.78125 -0.484375l0 -3.4375l-1.671875 0l-0.15625 -1.171875l3.265625 0l0 5.296875q-1.515625 0.984375 -3.21875 0.984375q-2.046875 0 -3.15625 -1.421875q-1.109375 -1.4375 -1.109375 -4.3125q0 -1.859375 0.59375 -3.140625q0.59375 -1.28125 1.59375 -1.90625q1.0 -0.640625 2.203125 -0.640625zm6.8554993 11.421875q-0.765625 0 -1.21875 -0.453125q-0.4375 -0.46875 -0.4375 -1.296875l0 -10.28125l1.4375 -0.15625l0 10.390625q0 0.625 0.515625 0.625q0.203125 0 0.453125 -0.109375l0.328125 1.015625q-0.515625 0.265625 -1.078125 0.265625zm5.4877625 -8.828125q1.625 0 2.515625 1.140625q0.890625 1.125 0.890625 3.265625q0 2.046875 -0.90625 3.234375q-0.90625 1.1875 -2.515625 1.1875q-1.609375 0 -2.515625 -1.15625q-0.90625 -1.171875 -0.90625 -3.25q0 -2.09375 0.90625 -3.25q0.921875 -1.171875 2.53125 -1.171875zm0 1.15625q-0.9375 0 -1.4375 0.796875q-0.5 0.78125 -0.5 2.46875q0 3.28125 1.921875 3.28125q1.921875 0 1.921875 -3.296875q0 -1.6875 -0.484375 -2.46875q-0.46875 -0.78125 -1.421875 -0.78125zm9.103516 -1.15625q1.328125 0 2.0625 1.125q0.734375 1.125 0.734375 3.28125q0 2.046875 -0.796875 3.234375q-0.796875 1.1875 -2.15625 1.1875q-0.640625 0 -1.171875 -0.296875q-0.515625 -0.296875 -0.90625 -0.828125l-0.09375 0.921875l-1.28125 0l0 -11.8125l1.4375 -0.15625l0 4.578125q0.40625 -0.578125 0.953125 -0.90625q0.546875 -0.328125 1.21875 -0.328125zm-0.484375 7.703125q1.765625 0 1.765625 -3.296875q0 -1.78125 -0.4375 -2.515625q-0.421875 -0.75 -1.21875 -0.75q-0.5625 0 -0.984375 0.34375q-0.421875 0.328125 -0.8125 0.9375l0 4.171875q0.3125 0.5 0.734375 0.8125q0.4375 0.296875 0.953125 0.296875zm10.493042 -1.0q0 0.515625 0.140625 0.765625q0.140625 0.25 0.453125 0.375l-0.3125 0.96875q-0.625 -0.09375 -0.984375 -0.375q-0.34375 -0.296875 -0.484375 -0.890625q-0.8125 1.28125 -2.28125 1.28125q-1.125 0 -1.78125 -0.6875q-0.65625 -0.703125 -0.65625 -1.875q0 -1.34375 0.875 -2.046875q0.890625 -0.703125 2.515625 -0.703125l1.09375 0l0 -0.71875q0 -0.875 -0.359375 -1.265625q-0.359375 -0.390625 -1.1875 -0.390625q-0.875 0 -2.046875 0.4375l-0.34375 -1.0q1.40625 -0.578125 2.625 -0.578125q2.734375 0 2.734375 2.734375l0 3.96875zm-3.140625 1.046875q1.125 0 1.71875 -1.3125l0 -1.984375l-0.9375 0q-2.078125 0 -2.078125 1.734375q0 0.75 0.328125 1.15625q0.34375 0.40625 0.96875 0.40625zm7.1487427 1.078125q-0.765625 0 -1.21875 -0.453125q-0.4375 -0.46875 -0.4375 -1.296875l0 -10.28125l1.4375 -0.15625l0 10.390625q0 0.625 0.515625 0.625q0.203125 0 0.453125 -0.109375l0.328125 1.015625q-0.515625 0.265625 -1.078125 0.265625z" fill-rule="nonzero"/><path fill="#dfbbb1" d="m264.021 444.5695l123.811035 0l0 35.307068l-123.811035 0z" fill-rule="evenodd"/><path fill="#000000" d="m305.9702 468.92947l0 -5.171875l-4.0 0l0 5.171875l-1.484375 0l0 -11.015625l1.484375 0l0 4.625l4.0 0l0 -4.625l1.5 0l0 11.015625l-1.5 0zm7.0710144 -8.625q1.625 0 2.515625 1.140625q0.890625 1.125 0.890625 3.265625q0 2.046875 -0.90625 3.234375q-0.90625 1.1875 -2.515625 1.1875q-1.609375 0 -2.515625 -1.15625q-0.90625 -1.171875 -0.90625 -3.25q0 -2.09375 0.90625 -3.25q0.921875 -1.171875 2.53125 -1.171875zm0 1.15625q-0.9375 0 -1.4375 0.796875q-0.5 0.78125 -0.5 2.46875q0 3.28125 1.921875 3.28125q1.921875 0 1.921875 -3.296875q0 -1.6875 -0.484375 -2.46875q-0.46875 -0.78125 -1.421875 -0.78125zm9.259766 -1.15625q1.0 0 1.5625 0.671875q0.578125 0.65625 0.578125 1.828125l0 6.125l-1.4375 0l0 -5.953125q0 -0.8125 -0.28125 -1.171875q-0.265625 -0.359375 -0.828125 -0.359375q-1.0625 0 -1.921875 1.5l0 5.984375l-1.4375 0l0 -8.421875l1.25 0l0.109375 1.25q0.96875 -1.453125 2.40625 -1.453125zm10.572632 4.15625q0 0.34375 -0.03125 0.75l-4.90625 0q0.078125 1.484375 0.59375 2.140625q0.53125 0.640625 1.4375 0.640625q0.578125 0 1.03125 -0.171875q0.46875 -0.1875 0.953125 -0.59375l0.640625 0.859375q-1.171875 1.046875 -2.6875 1.046875q-1.640625 0 -2.546875 -1.140625q-0.90625 -1.140625 -0.90625 -3.203125q0 -2.0625 0.859375 -3.265625q0.875 -1.21875 2.40625 -1.21875q1.515625 0 2.328125 1.078125q0.828125 1.078125 0.828125 3.078125zm-1.390625 -0.421875q0 -2.640625 -1.75 -2.640625q-0.796875 0 -1.265625 0.671875q-0.453125 0.65625 -0.53125 2.140625l3.546875 0l0 -0.171875zm5.560272 -3.734375q1.453125 0 2.59375 0.96875l-0.609375 0.84375q-0.515625 -0.359375 -0.96875 -0.53125q-0.4375 -0.171875 -0.9375 -0.171875q-0.65625 0 -1.03125 0.3125q-0.375 0.3125 -0.375 0.84375q0 0.53125 0.359375 0.84375q0.359375 0.296875 1.375 0.625q1.265625 0.390625 1.828125 0.96875q0.578125 0.578125 0.578125 1.578125q0 1.1875 -0.859375 1.875q-0.859375 0.671875 -2.15625 0.671875q-1.71875 0 -2.890625 -1.125l0.734375 -0.8125q1.0 0.828125 2.125 0.828125q0.703125 0 1.125 -0.34375q0.4375 -0.359375 0.4375 -0.984375q0 -0.453125 -0.15625 -0.71875q-0.140625 -0.28125 -0.53125 -0.484375q-0.390625 -0.21875 -1.15625 -0.46875q-1.1875 -0.390625 -1.71875 -0.953125q-0.53125 -0.5625 -0.53125 -1.421875q0 -0.671875 0.34375 -1.203125q0.359375 -0.53125 0.984375 -0.828125q0.625 -0.3125 1.4375 -0.3125zm8.644531 8.25q-0.796875 0.578125 -1.78125 0.578125q-1.015625 0 -1.578125 -0.578125q-0.546875 -0.59375 -0.546875 -1.671875l0 -5.28125l-1.203125 0l0 -1.09375l1.203125 0l0 -1.9375l1.4375 -0.171875l0 2.109375l1.859375 0l-0.15625 1.09375l-1.703125 0l0 5.265625q0 1.09375 0.921875 1.09375q0.265625 0 0.5 -0.078125q0.234375 -0.09375 0.515625 -0.25l0.53125 0.921875zm4.3714905 0.40625q-0.453125 1.484375 -1.265625 2.296875q-0.8125 0.828125 -2.328125 1.046875l-0.15625 -1.078125q0.75 -0.15625 1.203125 -0.4375q0.453125 -0.265625 0.71875 -0.703125q0.265625 -0.421875 0.53125 -1.15625l-0.53125 0l-2.5 -8.421875l1.484375 0l1.953125 7.40625l1.953125 -7.40625l1.484375 0l-2.546875 8.453125z" fill-rule="nonzero"/><path fill="#000000" fill-opacity="0.0" d="m387.83203 419.0326c63.338562 0 95.00787 -44.18109 126.677185 -88.36221c31.66925 -44.18109 63.338562 -88.3622 126.677124 -88.3622" fill-rule="evenodd"/><path stroke="#000000" stroke-width="2.0" stroke-linejoin="round" stroke-linecap="butt" d="m387.83203 419.0326c63.338562 0 95.00787 -44.18109 126.677185 -88.36221c31.66925 -44.18109 63.338562 -88.3622 126.677124 -88.3622" fill-rule="evenodd"/><path fill="#000000" fill-opacity="0.0" d="m387.83203 462.22302c63.338562 0 95.00787 -54.97638 126.677185 -109.95276c31.66925 -54.97638 63.338562 -109.95276 126.677124 -109.95276" fill-rule="evenodd"/><path stroke="#000000" stroke-width="2.0" stroke-linejoin="round" stroke-linecap="butt" d="m387.83203 462.22302c63.338562 0 95.00787 -54.97638 126.677185 -109.95276c31.66925 -54.97638 63.338562 -109.95276 126.677124 -109.95276" fill-rule="evenodd"/><path fill="#ffffff" d="m668.8455 258.69827l140.97638 0l0 57.543304l-140.97638 0z" fill-rule="evenodd"/><path stroke="#000000" stroke-width="1.0" stroke-linejoin="round" stroke-linecap="butt" d="m668.8455 258.69827l140.97638 0l0 57.543304l-140.97638 0z" fill-rule="evenodd"/><path fill="#000000" d="m700.85974 282.54016q1.0 0 1.75 0.3125q0.75 0.296875 1.46875 0.953125l-0.890625 1.046875q-0.546875 -0.46875 -1.078125 -0.6875q-0.53125 -0.21875 -1.15625 -0.21875q-1.453125 0 -2.3125 1.234375q-0.859375 1.234375 -0.859375 4.0q0 2.6875 0.859375 3.96875q0.859375 1.28125 2.3125 1.28125q0.71875 0 1.234375 -0.265625q0.53125 -0.265625 1.15625 -0.765625l0.875 1.03125q-1.40625 1.4375 -3.359375 1.4375q-1.4375 0 -2.546875 -0.75q-1.109375 -0.75 -1.734375 -2.25q-0.625 -1.5 -0.625 -3.6875q0 -2.15625 0.640625 -3.640625q0.640625 -1.5 1.75 -2.25q1.109375 -0.75 2.515625 -0.75zm8.18219 3.015625q1.890625 0 2.9375 1.328125q1.046875 1.328125 1.046875 3.8125q0 2.390625 -1.078125 3.78125q-1.0625 1.390625 -2.921875 1.390625q-1.890625 0 -2.9375 -1.359375q-1.046875 -1.375 -1.046875 -3.796875q0 -2.4375 1.0625 -3.796875q1.0625 -1.359375 2.9375 -1.359375zm0 1.34375q-1.09375 0 -1.671875 0.9375q-0.578125 0.921875 -0.578125 2.875q0 3.828125 2.234375 3.828125q2.234375 0 2.234375 -3.84375q0 -1.96875 -0.5625 -2.875q-0.546875 -0.921875 -1.65625 -0.921875zm15.469421 -1.34375q1.0625 0 1.6875 0.796875q0.640625 0.796875 0.640625 2.125l0 7.140625l-1.65625 0l0 -6.953125q0 -1.796875 -1.15625 -1.796875q-1.125 0 -2.046875 1.71875l0 7.03125l-1.671875 0l0 -6.953125q0 -1.796875 -1.15625 -1.796875q-1.140625 0 -2.046875 1.71875l0 7.03125l-1.65625 0l0 -9.8125l1.453125 0l0.125 1.4375q1.078125 -1.6875 2.609375 -1.6875q0.8125 0 1.359375 0.46875q0.5625 0.46875 0.8125 1.328125q1.140625 -1.796875 2.703125 -1.796875zm9.518555 0q1.59375 0 2.40625 1.328125q0.8125 1.328125 0.8125 3.796875q0 2.375 -0.90625 3.78125q-0.90625 1.40625 -2.515625 1.40625q-1.46875 0 -2.359375 -1.1875l0 4.671875l-1.671875 0.203125l0 -13.75l1.46875 0l0.09375 1.328125q1.0 -1.578125 2.671875 -1.578125zm-0.59375 8.96875q2.0625 0 2.0625 -3.828125q0 -2.0 -0.484375 -2.90625q-0.46875 -0.90625 -1.4375 -0.90625q-0.65625 0 -1.15625 0.390625q-0.5 0.390625 -0.953125 1.0625l0 4.96875q0.765625 1.21875 1.96875 1.21875zm8.128235 1.34375q-0.890625 0 -1.421875 -0.546875q-0.515625 -0.546875 -0.515625 -1.515625l0 -11.96875l1.671875 -0.1875l0 12.109375q0 0.71875 0.59375 0.71875q0.25 0 0.546875 -0.109375l0.375 1.171875q-0.59375 0.328125 -1.25 0.328125zm4.753357 -10.0625l0 9.8125l-1.671875 0l0 -9.8125l1.671875 0zm-0.828125 -4.625q0.484375 0 0.78125 0.3125q0.3125 0.3125 0.3125 0.78125q0 0.46875 -0.296875 0.78125q-0.296875 0.3125 -0.796875 0.3125q-0.484375 0 -0.796875 -0.3125q-0.3125 -0.3125 -0.3125 -0.78125q0 -0.46875 0.3125 -0.78125q0.3125 -0.3125 0.796875 -0.3125zm9.96698 12.203125q0 0.59375 0.171875 0.890625q0.171875 0.28125 0.53125 0.421875l-0.359375 1.140625q-0.734375 -0.109375 -1.140625 -0.4375q-0.40625 -0.34375 -0.578125 -1.03125q-0.953125 1.5 -2.671875 1.5q-1.296875 0 -2.0625 -0.8125q-0.765625 -0.8125 -0.765625 -2.1875q0 -1.5625 1.015625 -2.375q1.03125 -0.828125 2.9375 -0.828125l1.265625 0l0 -0.84375q0 -1.015625 -0.421875 -1.46875q-0.421875 -0.46875 -1.375 -0.46875q-1.015625 0 -2.375 0.53125l-0.421875 -1.1875q1.640625 -0.671875 3.0625 -0.671875q3.1875 0 3.1875 3.203125l0 4.625zm-3.65625 1.203125q1.3125 0 2.0 -1.53125l0 -2.3125l-1.078125 0q-2.421875 0 -2.421875 2.046875q0 0.875 0.390625 1.34375q0.390625 0.453125 1.109375 0.453125zm11.063477 -9.03125q1.1875 0 1.84375 0.78125q0.65625 0.78125 0.65625 2.140625l0 7.140625l-1.671875 0l0 -6.9375q0 -0.953125 -0.328125 -1.375q-0.3125 -0.421875 -0.96875 -0.421875q-1.21875 0 -2.234375 1.75l0 6.984375l-1.671875 0l0 -9.8125l1.453125 0l0.125 1.453125q1.140625 -1.703125 2.796875 -1.703125zm8.863098 0q0.78125 0 1.4375 0.265625q0.65625 0.265625 1.25 0.796875l-0.75 1.015625q-0.4375 -0.359375 -0.890625 -0.53125q-0.453125 -0.171875 -0.96875 -0.171875q-1.09375 0 -1.703125 0.9375q-0.609375 0.921875 -0.609375 2.90625q0 3.6875 2.3125 3.6875q0.515625 0 0.9375 -0.171875q0.4375 -0.1875 0.921875 -0.53125l0.796875 1.015625q-1.203125 1.09375 -2.71875 1.09375q-1.875 0 -2.953125 -1.3125q-1.0625 -1.3125 -1.0625 -3.765625q0 -1.609375 0.484375 -2.78125q0.5 -1.171875 1.40625 -1.8125q0.90625 -0.640625 2.109375 -0.640625zm11.098938 4.859375q0 0.390625 -0.03125 0.875l-5.703125 0q0.0625 1.71875 0.671875 2.484375q0.625 0.75 1.6875 0.75q0.671875 0 1.203125 -0.203125q0.53125 -0.21875 1.109375 -0.6875l0.75 1.0q-1.375 1.234375 -3.140625 1.234375q-1.921875 0 -2.96875 -1.328125q-1.046875 -1.34375 -1.046875 -3.75q0 -2.40625 1.0 -3.8125q1.0 -1.421875 2.796875 -1.421875q1.78125 0 2.71875 1.265625q0.953125 1.265625 0.953125 3.59375zm-1.625 -0.5q0 -3.078125 -2.03125 -3.078125q-0.921875 0 -1.46875 0.78125q-0.546875 0.765625 -0.609375 2.5l4.109375 0l0 -0.203125z" fill-rule="nonzero"/></g></svg>